<?xml version="1.0" encoding="UTF-8" standalone="no"?>
<!DOCTYPE svg PUBLIC "-//W3C//DTD SVG 1.1//EN" "http://www.w3.org/Graphics/SVG/1.1/DTD/svg11.dtd">
<svg width="100%" height="100%" viewBox="0 0 1063 114" version="1.1" xmlns="http://www.w3.org/2000/svg" xmlns:xlink="http://www.w3.org/1999/xlink" xml:space="preserve" xmlns:serif="http://www.serif.com/" style="fill-rule:evenodd;clip-rule:evenodd;stroke-linejoin:round;stroke-miterlimit:2;">
    <g transform="matrix(1,0,0,1,-58.9333,-31.8654)">
        <g id="Layer-1" serif:id="Layer 1" transform="matrix(4.16667,0,0,4.16667,0,0)">
            <g transform="matrix(1,0,0,1,85.8721,17.0224)">
                <path d="M0,8.127C1.197,8.92 2.71,9.544 4.623,10.036C5.034,10.471 5.68,10.718 6.304,10.957C7.073,11.251 7.87,11.554 8.252,12.238C8.193,12.44 7.949,12.519 7.69,12.603C7.479,12.672 7.259,12.743 7.146,12.914C7.129,12.956 7.117,12.982 7.108,13.003C7.086,13.052 7.067,13.095 7.093,13.136C7.125,13.191 7.189,13.194 7.465,13.21C7.512,13.214 7.568,13.215 7.63,13.215C8.148,13.215 9.623,13.096 9.78,12.711C9.348,12.285 8.965,11.869 8.596,11.468C7.585,10.369 6.538,9.231 4.644,8.974C4.373,8.733 4.003,8.456 3.635,8.181C2.926,7.651 2.193,7.103 2.07,6.779C1.92,5.935 1.557,5.676 1.171,5.403C1.011,5.29 0.846,5.172 0.688,5.006C0.355,4.166 0.625,3.685 0.936,3.128C1.219,2.622 1.539,2.051 1.354,1.117C2.095,1.106 2.359,1.014 2.798,0.632C3.005,0.45 3.078,-0.004 2.985,-0.524C2.902,-0.989 2.67,-1.541 2.268,-1.697C2.063,-1.774 1.845,-1.811 1.6,-1.811C1.219,-1.811 0.831,-1.723 0.421,-1.63C0.302,-1.602 0.182,-1.575 0.061,-1.549C-0.013,-2.081 0.017,-2.675 0.049,-3.302C0.078,-3.876 0.109,-4.471 0.072,-5.111C0.737,-5.359 0.489,-6.266 0.324,-6.87C0.285,-7.012 0.25,-7.141 0.23,-7.244C0.218,-7.319 0.163,-7.357 0.065,-7.357C0.065,-7.357 -0.072,-7.349 -0.103,-7.349C-0.758,-6.834 -0.732,-6.123 -0.706,-5.434C-0.698,-5.229 -0.69,-5.027 -0.701,-4.832C-0.712,-4.6 -0.78,-4.368 -0.854,-4.122C-0.921,-3.892 -0.991,-3.654 -1.018,-3.402C-1.148,-2.033 -0.828,-0.541 -0.617,0.445C-0.58,0.615 -0.546,0.773 -0.518,0.915C-1.685,1.759 -2.189,2.973 -2.04,4.571C-1.939,5.033 -1.777,5.282 -1.658,5.463C-1.521,5.67 -1.465,5.756 -1.624,5.969C-1.681,5.953 -1.77,5.952 -1.863,5.952L-1.905,5.952C-2.096,5.952 -2.289,5.948 -2.483,5.944C-2.679,5.94 -2.874,5.937 -3.065,5.937C-3.713,5.937 -4.37,5.978 -4.795,6.276C-5.196,7.085 -5.069,7.987 -4.933,8.941C-4.827,9.68 -4.72,10.444 -4.817,11.253C-4.84,11.783 -5.376,12.015 -5.85,12.22C-6.256,12.396 -6.605,12.547 -6.572,12.855C-6.558,12.962 -6.408,12.962 -6.352,12.962C-6.178,12.962 -5.892,12.913 -5.589,12.86C-5.332,12.816 -5.06,12.77 -4.818,12.745C-4.714,12.734 -4.618,12.731 -4.532,12.731C-4.362,12.731 -4.228,12.747 -4.123,12.76C-4.052,12.769 -3.993,12.775 -3.946,12.775C-3.91,12.775 -3.88,12.771 -3.855,12.763C-3.724,12.72 -3.587,12.569 -3.521,12.396C-3.472,12.261 -3.438,12.051 -3.575,11.821C-3.934,11.216 -3.752,10.077 -3.592,9.071C-3.507,8.539 -3.428,8.034 -3.433,7.649C-2.879,7.669 -2.408,7.781 -1.951,7.889C-1.442,8.01 -0.916,8.134 -0.273,8.134C-0.186,8.134 -0.095,8.132 0,8.127M1.082,17.501C-6.328,17.501 -12.356,11.472 -12.356,4.062C-12.356,-3.347 -6.328,-9.374 1.082,-9.374C8.489,-9.374 14.516,-3.347 14.516,4.062C14.516,11.472 8.489,17.501 1.082,17.501" style="fill:white;fill-rule:nonzero;"/>
            </g>
            <g transform="matrix(1,0,0,1,26.769,26.5132)">
                <path d="M0,-10.857C0.033,-10.427 0.037,-10.226 0.043,-9.94L0.046,-9.805L0.064,-9.44C0.085,-9.006 0.105,-8.598 0.047,-8.215C-0.012,-7.818 -0.192,-7.445 -0.366,-7.085C-0.507,-6.793 -0.639,-6.518 -0.703,-6.245C-0.776,-5.932 -0.763,-5.681 -0.751,-5.439C-0.74,-5.208 -0.729,-4.99 -0.798,-4.741C-0.848,-4.556 -0.977,-4.357 -1.1,-4.164C-1.197,-4.013 -1.293,-3.862 -1.36,-3.712C-1.436,-3.54 -1.497,-3.346 -1.558,-3.157C-1.641,-2.897 -1.72,-2.65 -1.824,-2.497C-2.022,-2.213 -2.313,-2.073 -2.648,-1.912C-2.921,-1.78 -3.229,-1.631 -3.512,-1.38C-3.791,-1.132 -4.015,-0.801 -4.23,-0.481C-4.525,-0.044 -4.829,0.407 -5.288,0.685C-5.421,0.764 -5.614,0.804 -5.801,0.842C-6.104,0.903 -6.391,0.961 -6.444,1.189C-6.513,1.491 -6.356,1.759 -6.19,2.041C-6.068,2.248 -5.941,2.462 -5.893,2.706C-5.864,2.86 -5.85,3.004 -5.836,3.133C-5.792,3.574 -5.76,3.892 -5.191,3.892C-4.946,3.672 -5.03,3.513 -5.11,3.359C-5.168,3.251 -5.227,3.139 -5.206,2.997C-4.875,1.643 -3.913,0.92 -2.984,0.222C-2.835,0.109 -2.706,-0.001 -2.577,-0.111C-2.392,-0.27 -2.216,-0.419 -2.032,-0.54C-1.895,-0.63 -1.722,-0.691 -1.555,-0.75C-1.358,-0.82 -1.154,-0.892 -0.995,-1.015C-0.827,-1.14 -0.692,-1.345 -0.56,-1.543C-0.485,-1.658 -0.41,-1.772 -0.329,-1.867C-0.214,-2.002 -0.096,-2.131 0.02,-2.257C0.163,-2.414 0.302,-2.565 0.423,-2.715C0.653,-2.994 0.843,-3.299 1.027,-3.594C1.238,-3.935 1.457,-4.287 1.737,-4.597C2.038,-4.544 2.408,-4.531 2.777,-4.519C3.277,-4.502 3.793,-4.484 4.241,-4.406C3.906,-3.953 3.743,-3.428 3.585,-2.92C3.451,-2.486 3.311,-2.038 3.066,-1.649C2.977,-1.505 2.851,-1.378 2.718,-1.244C2.419,-0.94 2.11,-0.626 2.209,-0.107C2.365,0.099 2.617,0.159 2.862,0.216C2.975,0.244 3.088,0.27 3.19,0.31C3.476,0.548 4.337,1.022 4.788,1.022C4.974,1.022 5.041,0.937 5.063,0.865C5.126,0.66 4.899,0.442 4.611,0.167C4.289,-0.14 3.925,-0.489 3.92,-0.873C3.914,-1.376 4.449,-1.961 4.921,-2.477C5.025,-2.59 5.4,-3.006 5.4,-3.006C5.921,-3.579 6.635,-4.362 6.554,-4.923C6.475,-5.417 5.506,-5.926 4.927,-6.232L4.833,-6.281C4.491,-6.462 4.11,-6.561 3.741,-6.657C3.306,-6.77 2.894,-6.878 2.625,-7.106C2.683,-7.302 2.724,-7.666 2.766,-8.044C2.832,-8.635 2.899,-9.248 2.973,-9.492C2.975,-9.441 3.213,-9.187 3.404,-8.962C3.421,-8.944 3.804,-8.521 4.163,-8.521C4.195,-8.521 4.224,-8.524 4.253,-8.53C4.584,-8.602 5.102,-9.642 5.695,-10.893L5.794,-11.102C5.858,-11.236 5.923,-11.365 5.986,-11.488C6.212,-11.936 6.408,-12.322 6.36,-12.637C6.315,-13 6.133,-13.29 5.863,-13.429L5.799,-13.445C5.654,-13.445 5.579,-13.209 5.485,-12.909C5.419,-12.704 5.346,-12.472 5.251,-12.352C5.265,-12.375 5.217,-12.443 5.189,-12.483C5.121,-12.58 5.057,-12.67 4.977,-12.67C4.925,-12.67 4.885,-12.634 4.857,-12.563C4.826,-12.482 4.849,-12.43 4.878,-12.363C4.924,-12.253 5.003,-12.07 4.987,-11.54C4.939,-11.344 4.459,-10.343 4.099,-9.952C3.565,-10.649 2.856,-11.585 2.503,-12.461C2.595,-12.49 2.74,-12.551 2.883,-12.611C3.047,-12.679 3.217,-12.751 3.338,-12.871C3.819,-13.529 3.731,-14.423 3.449,-14.979C3.22,-15.43 2.865,-15.688 2.474,-15.688C2.338,-15.688 2.198,-15.656 2.059,-15.595C1.16,-15.197 1.172,-14.77 1.204,-13.736C1.211,-13.509 1.218,-13.252 1.218,-12.957C0.617,-12.713 -1.49,-11.682 -2.037,-10.723C-2.329,-10.346 -2.099,-9.719 -1.875,-9.113C-1.755,-8.79 -1.633,-8.456 -1.602,-8.182C-1.577,-7.96 -1.57,-7.811 -1.566,-7.707C-1.555,-7.442 -1.545,-7.426 -1.315,-7.276C-1.233,-7.222 -1.122,-7.149 -0.967,-7.035C-0.683,-7.128 -0.421,-7.288 -0.429,-7.641C-0.372,-7.751 -0.374,-7.765 -0.416,-7.908L-0.457,-8.054C-0.571,-8.177 -0.617,-8.255 -0.67,-8.345C-0.693,-8.383 -0.717,-8.424 -0.747,-8.469C-0.996,-8.847 -1.087,-9.344 -1.174,-9.824L-1.226,-10.101C-1.273,-10.341 -0.795,-10.529 -0.413,-10.68C-0.259,-10.74 -0.113,-10.798 0,-10.857M0.811,8.008C-6.598,8.008 -12.625,1.979 -12.625,-5.43C-12.625,-12.838 -6.598,-18.865 0.811,-18.865C8.22,-18.865 14.247,-12.838 14.247,-5.43C14.247,1.979 8.22,8.008 0.811,8.008" style="fill:white;fill-rule:nonzero;"/>
            </g>
            <g transform="matrix(1,0,0,1,57.2207,20.1187)">
                <path d="M0,1.932C0.201,2.319 0.317,2.763 0.439,3.23C0.489,3.418 0.539,3.606 0.594,3.792C0.651,3.994 0.72,4.202 0.79,4.414C0.951,4.907 1.119,5.417 1.181,5.91C1.207,6.118 1.191,6.328 1.175,6.552C1.156,6.799 1.139,7.055 1.181,7.305C1.208,7.467 1.292,7.638 1.382,7.82C1.443,7.943 1.504,8.069 1.548,8.194C1.851,9.073 1.946,9.833 1.839,10.517C2.002,10.669 2.081,10.837 2.163,11.014C2.252,11.206 2.345,11.405 2.527,11.521C2.617,11.538 2.68,11.541 2.738,11.541C3,11.541 3.208,11.464 3.395,11.298C3.39,10.993 3.239,10.807 3.093,10.627C2.989,10.499 2.881,10.368 2.825,10.212C2.604,9.631 2.643,8.954 2.684,8.238C2.714,7.717 2.745,7.178 2.681,6.63C2.652,6.391 2.584,6.184 2.521,5.985C2.461,5.803 2.405,5.63 2.389,5.459C2.339,4.946 2.421,4.56 2.502,4.187C2.553,3.95 2.601,3.726 2.61,3.486C2.622,3.013 2.59,2.405 2.53,2.008C2.465,1.545 2.291,0.991 2.121,0.456C1.96,-0.053 1.808,-0.533 1.751,-0.923C1.633,-1.763 1.705,-2.222 1.869,-2.733C1.963,-3.015 2.017,-3.292 2.069,-3.56C2.123,-3.832 2.172,-4.09 2.26,-4.345C2.273,-4.326 2.312,-4.324 2.358,-4.324L2.405,-4.324C2.558,-4.324 2.728,-4.301 2.897,-4.278C3.071,-4.256 3.245,-4.233 3.402,-4.233C3.438,-4.233 3.474,-4.234 3.509,-4.237C4.375,-4.297 5.215,-4.836 5.673,-5.277C5.795,-5.927 5.721,-6.536 5.655,-7.074C5.584,-7.657 5.523,-8.162 5.708,-8.516C5.708,-8.509 5.709,-8.506 5.71,-8.506C5.714,-8.506 5.715,-8.543 5.717,-8.611C5.718,-8.653 5.718,-8.703 5.721,-8.718L5.669,-8.677L5.723,-8.737C5.712,-8.848 5.704,-9.007 5.696,-9.147L5.687,-9.302C5.498,-9.475 5.314,-9.541 5.103,-9.541C4.914,-9.541 4.707,-9.49 4.432,-9.376C4.4,-9.252 4.389,-9.176 4.377,-9.096C4.349,-8.912 4.315,-8.683 4.421,-8.412C4.777,-8.106 4.681,-7.496 4.578,-6.849C4.54,-6.607 4.501,-6.357 4.481,-6.113C4.444,-6.117 4.409,-6.119 4.372,-6.119C4.171,-6.119 3.974,-6.059 3.783,-6.001C3.591,-5.943 3.393,-5.883 3.193,-5.883C3.006,-5.89 2.873,-5.943 2.746,-5.993C2.614,-6.046 2.478,-6.1 2.337,-6.105C2.273,-6.107 2.21,-6.108 2.148,-6.108L1.679,-6.102C1.273,-6.102 1.02,-6.156 0.836,-6.443C0.702,-6.612 0.686,-6.745 0.78,-6.88L0.858,-6.98C1.003,-7.165 1.058,-7.234 1.066,-7.587C1.086,-8.125 0.933,-8.617 0.658,-8.903C0.479,-9.088 0.251,-9.186 -0.001,-9.186C-0.031,-9.186 -0.061,-9.185 -0.092,-9.182C-0.345,-9.162 -0.563,-9.037 -0.741,-8.81C-1.023,-8.451 -1.144,-7.891 -1.094,-7.579C-1.053,-7.299 -0.955,-7.151 -0.882,-7.043C-0.839,-6.978 -0.806,-6.927 -0.794,-6.867C-0.72,-6.385 -0.958,-6.127 -1.563,-6.031C-1.59,-6.026 -1.62,-6.025 -1.651,-6.025C-1.748,-6.025 -1.86,-6.044 -1.974,-6.063C-2.1,-6.084 -2.227,-6.105 -2.344,-6.105C-2.538,-6.099 -2.735,-6.076 -2.943,-6.053C-3.219,-6.021 -3.504,-5.988 -3.771,-5.988C-4.122,-5.988 -4.37,-6.047 -4.53,-6.168C-4.494,-6.528 -4.556,-6.864 -4.617,-7.19C-4.673,-7.492 -4.732,-7.806 -4.727,-8.177C-4.585,-8.214 -4.397,-8.407 -4.354,-8.544C-4.325,-8.642 -4.333,-8.697 -4.339,-8.752C-4.352,-8.909 -4.348,-9.023 -4.345,-9.136C-4.342,-9.238 -4.34,-9.339 -4.344,-9.43C-4.55,-9.586 -4.725,-9.641 -4.906,-9.641C-5.147,-9.641 -5.366,-9.541 -5.577,-9.444L-5.668,-9.403L-5.7,-9.346C-5.7,-9.346 -5.737,-8.739 -5.702,-8.7C-5.487,-8.157 -5.561,-7.552 -5.637,-6.911C-5.706,-6.357 -5.774,-5.785 -5.641,-5.231C-5.027,-4.744 -4.041,-4.256 -3.057,-4.256C-2.763,-4.256 -2.482,-4.299 -2.22,-4.384C-2.078,-4.181 -2.066,-3.911 -2.053,-3.599C-2.048,-3.463 -2.042,-3.323 -2.02,-3.181C-1.997,-3.037 -1.985,-2.907 -1.973,-2.779C-1.957,-2.608 -1.941,-2.435 -1.9,-2.227C-1.814,-1.744 -1.886,-1.067 -1.975,-0.633C-2.148,0.204 -2.3,0.97 -2.419,1.864C-2.485,2.428 -2.511,3.307 -2.419,4.002C-2.39,4.198 -2.327,4.371 -2.266,4.537C-2.196,4.726 -2.13,4.905 -2.12,5.099C-2.109,5.313 -2.162,5.561 -2.218,5.824C-2.267,6.056 -2.318,6.297 -2.339,6.56C-2.393,7.189 -2.343,7.873 -2.297,8.477C-2.255,9.056 -2.214,9.601 -2.271,10.002C-2.302,10.233 -2.459,10.423 -2.611,10.607C-2.783,10.816 -2.946,11.014 -2.927,11.261C-2.763,11.452 -2.528,11.532 -2.215,11.532L-2.139,11.53C-1.947,11.48 -1.887,11.334 -1.829,11.193C-1.801,11.125 -1.772,11.055 -1.73,10.997C-1.678,10.925 -1.625,10.874 -1.576,10.827C-1.48,10.736 -1.391,10.65 -1.355,10.464C-1.318,10.28 -1.35,10.063 -1.384,9.834C-1.416,9.623 -1.447,9.407 -1.427,9.207C-1.392,8.88 -1.259,8.535 -1.131,8.202C-1.009,7.883 -0.881,7.553 -0.836,7.23C-0.804,6.98 -0.837,6.734 -0.87,6.495C-0.898,6.291 -0.925,6.099 -0.913,5.906C-0.901,5.726 -0.834,5.558 -0.762,5.381C-0.709,5.249 -0.654,5.113 -0.619,4.965C-0.518,4.516 -0.446,4.084 -0.377,3.668C-0.277,3.055 -0.181,2.474 0,1.932M0.044,14.403C-7.365,14.403 -13.391,8.374 -13.391,0.965C-13.391,-6.443 -7.365,-12.471 0.044,-12.471C7.455,-12.471 13.483,-6.443 13.483,0.965C13.483,8.374 7.455,14.403 0.044,14.403" style="fill:white;fill-rule:nonzero;"/>
            </g>
            <g transform="matrix(1,0,0,1,124.188,33.3353)">
                <path d="M0,-5.264L2.832,-5.264L2.832,-4.693L0.679,-4.693L0.679,-2.945L2.666,-2.945L2.666,-2.383L0.679,-2.383L0.679,0L0,0L0,-5.264Z" style="fill:white;fill-rule:nonzero;"/>
            </g>
            <g transform="matrix(1,0,0,1,0,18.8765)">
                <path d="M127.982,10.679L128.67,10.679L128.67,14.458L127.982,14.458L127.982,10.679ZM128.744,9.615C128.754,9.849 128.583,10.035 128.31,10.035C128.065,10.035 127.895,9.849 127.895,9.615C127.895,9.375 128.075,9.185 128.324,9.185C128.583,9.185 128.744,9.375 128.744,9.615" style="fill:white;fill-rule:nonzero;"/>
            </g>
            <g transform="matrix(1,0,0,1,130.853,33.4184)">
                <path d="M0,-4.771L0,-3.863L0.981,-3.863L0.981,-3.34L0,-3.34L0,-1.299C0,-0.835 0.132,-0.567 0.518,-0.567C0.703,-0.567 0.811,-0.582 0.913,-0.616L0.947,-0.098C0.811,-0.044 0.601,0 0.337,0C0.015,0 -0.244,-0.108 -0.405,-0.293C-0.601,-0.499 -0.669,-0.835 -0.669,-1.28L-0.669,-3.34L-1.255,-3.34L-1.255,-3.863L-0.669,-3.863L-0.669,-4.556L0,-4.771Z" style="fill:white;fill-rule:nonzero;"/>
            </g>
            <g transform="matrix(1,0,0,1,132.831,32.2271)">
                <path d="M0,-1.651C0,-2.042 -0.01,-2.359 -0.034,-2.672L0.576,-2.672L0.615,-2.047L0.63,-2.047C0.82,-2.408 1.255,-2.759 1.88,-2.759C2.402,-2.759 3.218,-2.447 3.218,-1.148L3.218,1.108L2.529,1.108L2.529,-1.07C2.529,-1.68 2.3,-2.188 1.655,-2.188C1.201,-2.188 0.85,-1.866 0.732,-1.485C0.703,-1.397 0.684,-1.285 0.684,-1.163L0.684,1.108L0,1.108L0,-1.651Z" style="fill:white;fill-rule:nonzero;"/>
            </g>
            <g transform="matrix(1,0,0,1,139.779,31.8071)">
                <path d="M0,-0.728C0.01,-1.167 -0.181,-1.846 -0.952,-1.846C-1.65,-1.846 -1.953,-1.207 -2.007,-0.728L0,-0.728ZM-2.017,-0.24C-2.002,0.693 -1.406,1.074 -0.718,1.074C-0.225,1.074 0.073,0.991 0.327,0.878L0.444,1.372C0.205,1.484 -0.21,1.611 -0.811,1.611C-1.978,1.611 -2.671,0.839 -2.671,-0.298C-2.671,-1.441 -2.002,-2.339 -0.898,-2.339C0.337,-2.339 0.664,-1.25 0.664,-0.557C0.664,-0.415 0.649,-0.308 0.64,-0.24L-2.017,-0.24Z" style="fill:white;fill-rule:nonzero;"/>
            </g>
            <g transform="matrix(1,0,0,1,141.419,30.2538)">
                <path d="M0,2.378C0.205,2.51 0.562,2.651 0.903,2.651C1.401,2.651 1.636,2.402 1.636,2.09C1.636,1.763 1.445,1.582 0.938,1.397C0.254,1.152 -0.063,0.776 -0.063,0.322C-0.063,-0.283 0.43,-0.786 1.24,-0.786C1.621,-0.786 1.958,-0.674 2.168,-0.552L1.997,-0.049C1.851,-0.146 1.577,-0.268 1.226,-0.268C0.815,-0.268 0.591,-0.034 0.591,0.244C0.591,0.562 0.815,0.698 1.309,0.889C1.968,1.138 2.3,1.465 2.3,2.026C2.3,2.691 1.787,3.164 0.889,3.164C0.474,3.164 0.093,3.057 -0.171,2.9L0,2.378Z" style="fill:white;fill-rule:nonzero;"/>
            </g>
            <g transform="matrix(1,0,0,1,144.73,30.2538)">
                <path d="M0,2.378C0.2,2.51 0.562,2.651 0.903,2.651C1.401,2.651 1.641,2.402 1.641,2.09C1.641,1.763 1.44,1.582 0.938,1.397C0.259,1.152 -0.063,0.776 -0.063,0.322C-0.063,-0.283 0.425,-0.786 1.24,-0.786C1.621,-0.786 1.958,-0.674 2.168,-0.552L1.997,-0.049C1.851,-0.146 1.577,-0.268 1.226,-0.268C0.815,-0.268 0.591,-0.034 0.591,0.244C0.591,0.562 0.815,0.698 1.309,0.889C1.963,1.138 2.3,1.465 2.3,2.026C2.3,2.691 1.787,3.164 0.889,3.164C0.474,3.164 0.093,3.057 -0.176,2.9L0,2.378Z" style="fill:white;fill-rule:nonzero;"/>
            </g>
            <g transform="matrix(0.846334,0.532652,0.532652,-0.846334,147.186,33.8206)">
                <path d="M0.613,-0.177C0.502,0.302 0.235,1.12 0.005,1.65L0.613,2.125C0.813,1.466 0.987,0.549 0.996,0.122L0.613,-0.177Z" style="fill:white;fill-rule:nonzero;"/>
            </g>
            <g transform="matrix(1,0,0,1,151.683,28.8917)">
                <path d="M0,3.618C0.309,3.804 0.752,3.96 1.217,3.96C1.914,3.96 2.32,3.594 2.32,3.061C2.32,2.568 2.041,2.29 1.328,2.016C0.469,1.709 -0.063,1.264 -0.063,0.522C-0.063,-0.298 0.621,-0.908 1.641,-0.908C2.178,-0.908 2.574,-0.781 2.803,-0.65L2.617,-0.093C2.447,-0.186 2.096,-0.347 1.617,-0.347C0.898,-0.347 0.625,0.088 0.625,0.444C0.625,0.937 0.947,1.177 1.676,1.46C2.564,1.802 3.018,2.231 3.018,3.008C3.018,3.818 2.418,4.526 1.172,4.526C0.664,4.526 0.113,4.375 -0.17,4.184L0,3.618Z" style="fill:white;fill-rule:nonzero;"/>
            </g>
            <g transform="matrix(1,0,0,1,156.624,33.4184)">
                <path d="M0,-4.771L0,-3.863L0.986,-3.863L0.986,-3.34L0,-3.34L0,-1.299C0,-0.835 0.137,-0.567 0.518,-0.567C0.709,-0.567 0.816,-0.582 0.918,-0.616L0.947,-0.098C0.816,-0.044 0.605,0 0.338,0C0.02,0 -0.238,-0.108 -0.404,-0.293C-0.6,-0.499 -0.668,-0.835 -0.668,-1.28L-0.668,-3.34L-1.254,-3.34L-1.254,-3.863L-0.668,-3.863L-0.668,-4.556L0,-4.771Z" style="fill:white;fill-rule:nonzero;"/>
            </g>
            <g transform="matrix(1,0,0,1,158.602,32.0704)">
                <path d="M0,-1.338C0,-1.782 -0.01,-2.163 -0.029,-2.515L0.57,-2.515L0.596,-1.773L0.625,-1.773C0.795,-2.28 1.211,-2.603 1.67,-2.603C1.748,-2.603 1.807,-2.593 1.865,-2.578L1.865,-1.929C1.797,-1.943 1.729,-1.953 1.631,-1.953C1.146,-1.953 0.805,-1.587 0.713,-1.069C0.693,-0.977 0.678,-0.869 0.678,-0.752L0.678,1.265L0,1.265L0,-1.338Z" style="fill:white;fill-rule:nonzero;"/>
            </g>
            <g transform="matrix(1,0,0,1,163.694,31.8071)">
                <path d="M0,-0.728C0.005,-1.167 -0.18,-1.846 -0.951,-1.846C-1.65,-1.846 -1.953,-1.207 -2.006,-0.728L0,-0.728ZM-2.016,-0.24C-2.002,0.693 -1.406,1.074 -0.717,1.074C-0.229,1.074 0.068,0.991 0.327,0.878L0.444,1.372C0.2,1.484 -0.209,1.611 -0.814,1.611C-1.977,1.611 -2.67,0.839 -2.67,-0.298C-2.67,-1.441 -2.002,-2.339 -0.898,-2.339C0.337,-2.339 0.664,-1.25 0.664,-0.557C0.664,-0.415 0.649,-0.308 0.64,-0.24L-2.016,-0.24Z" style="fill:white;fill-rule:nonzero;"/>
            </g>
            <g transform="matrix(1,0,0,1,165.428,32.2271)">
                <path d="M0,-1.651C0,-2.042 -0.01,-2.359 -0.034,-2.672L0.576,-2.672L0.615,-2.047L0.63,-2.047C0.82,-2.408 1.255,-2.759 1.88,-2.759C2.402,-2.759 3.213,-2.447 3.213,-1.148L3.213,1.108L2.529,1.108L2.529,-1.07C2.529,-1.68 2.305,-2.188 1.655,-2.188C1.201,-2.188 0.85,-1.866 0.732,-1.485C0.703,-1.397 0.684,-1.285 0.684,-1.163L0.684,1.108L0,1.108L0,-1.651Z" style="fill:white;fill-rule:nonzero;"/>
            </g>
            <g transform="matrix(1,0,0,1,172.523,33.3889)">
                <path d="M0,-2.344C0,-2.461 -0.005,-2.559 -0.039,-2.657C-0.161,-3.052 -0.498,-3.379 -1.001,-3.379C-1.655,-3.379 -2.124,-2.827 -2.124,-1.953C-2.124,-1.211 -1.748,-0.591 -1.006,-0.591C-0.586,-0.591 -0.2,-0.86 -0.054,-1.294C-0.015,-1.411 0,-1.548 0,-1.665L0,-2.344ZM0.679,-0.601C0.679,0.268 0.508,0.796 0.142,1.128C-0.225,1.469 -0.757,1.577 -1.235,1.577C-1.685,1.577 -2.183,1.469 -2.49,1.264L-2.319,0.742C-2.07,0.898 -1.68,1.04 -1.206,1.04C-0.508,1.04 0.01,0.674 0.01,-0.279L0.01,-0.703L-0.005,-0.703C-0.22,-0.352 -0.625,-0.069 -1.206,-0.069C-2.144,-0.069 -2.817,-0.865 -2.817,-1.914C-2.817,-3.194 -1.982,-3.921 -1.118,-3.921C-0.459,-3.921 -0.103,-3.574 0.063,-3.262L0.078,-3.262L0.112,-3.833L0.713,-3.833C0.698,-3.56 0.679,-3.257 0.679,-2.793L0.679,-0.601Z" style="fill:white;fill-rule:nonzero;"/>
            </g>
            <g transform="matrix(1,0,0,1,175.389,33.4184)">
                <path d="M0,-4.771L0,-3.863L0.981,-3.863L0.981,-3.34L0,-3.34L0,-1.299C0,-0.835 0.132,-0.567 0.518,-0.567C0.703,-0.567 0.811,-0.582 0.913,-0.616L0.947,-0.098C0.811,-0.044 0.601,0 0.337,0C0.015,0 -0.244,-0.108 -0.405,-0.293C-0.601,-0.499 -0.674,-0.835 -0.674,-1.28L-0.674,-3.34L-1.26,-3.34L-1.26,-3.863L-0.674,-3.863L-0.674,-4.556L0,-4.771Z" style="fill:white;fill-rule:nonzero;"/>
            </g>
            <g transform="matrix(1,0,0,1,177.361,33.3351)">
                <path d="M0,-5.547L0.688,-5.547L0.688,-3.189L0.703,-3.189C0.815,-3.379 0.986,-3.555 1.196,-3.672C1.401,-3.789 1.641,-3.867 1.899,-3.867C2.407,-3.867 3.218,-3.555 3.218,-2.251L3.218,0L2.534,0L2.534,-2.173C2.534,-2.778 2.305,-3.296 1.655,-3.296C1.211,-3.296 0.859,-2.984 0.737,-2.608C0.698,-2.515 0.688,-2.412 0.688,-2.28L0.688,0L0,0L0,-5.547Z" style="fill:white;fill-rule:nonzero;"/>
            </g>
            <g transform="matrix(1,0,0,1,185.779,31.4802)">
                <path d="M0,-0.074C-0.747,-0.089 -1.602,0.043 -1.602,0.776C-1.602,1.22 -1.304,1.435 -0.952,1.435C-0.459,1.435 -0.146,1.122 -0.039,0.8C-0.015,0.732 0,0.654 0,0.58L0,-0.074ZM0.664,0.947C0.664,1.279 0.679,1.596 0.728,1.855L0.103,1.855L0.049,1.376L0.024,1.376C-0.186,1.674 -0.596,1.938 -1.133,1.938C-1.895,1.938 -2.285,1.401 -2.285,0.854C-2.285,-0.059 -1.475,-0.557 -0.015,-0.553L-0.015,-0.631C-0.015,-0.943 -0.103,-1.505 -0.874,-1.505C-1.226,-1.505 -1.592,-1.392 -1.855,-1.221L-2.017,-1.676C-1.699,-1.881 -1.25,-2.012 -0.771,-2.012C0.381,-2.012 0.664,-1.221 0.664,-0.465L0.664,0.947Z" style="fill:white;fill-rule:nonzero;"/>
            </g>
            <g transform="matrix(1,0,0,1,187.771,32.2271)">
                <path d="M0,-1.651C0,-2.042 -0.01,-2.359 -0.034,-2.672L0.576,-2.672L0.615,-2.047L0.635,-2.047C0.82,-2.408 1.255,-2.759 1.88,-2.759C2.402,-2.759 3.218,-2.447 3.218,-1.148L3.218,1.108L2.529,1.108L2.529,-1.07C2.529,-1.68 2.305,-2.188 1.655,-2.188C1.201,-2.188 0.85,-1.866 0.732,-1.485C0.703,-1.397 0.684,-1.285 0.684,-1.163L0.684,1.108L0,1.108L0,-1.651Z" style="fill:white;fill-rule:nonzero;"/>
            </g>
            <g transform="matrix(1,0,0,1,194.9,30.1117)">
                <path d="M0,0.982C0,0.894 -0.01,0.777 -0.034,0.694C-0.137,0.254 -0.508,-0.102 -1.025,-0.102C-1.733,-0.102 -2.158,0.523 -2.158,1.358C-2.158,2.125 -1.782,2.754 -1.04,2.754C-0.576,2.754 -0.156,2.452 -0.034,1.934C-0.01,1.841 0,1.749 0,1.636L0,0.982ZM0.684,-2.324L0.684,2.247C0.684,2.584 0.693,2.964 0.718,3.223L0.098,3.223L0.068,2.569L0.054,2.569C-0.156,2.989 -0.615,3.306 -1.235,3.306C-2.148,3.306 -2.852,2.535 -2.852,1.387C-2.861,0.132 -2.08,-0.644 -1.157,-0.644C-0.576,-0.644 -0.19,-0.371 -0.015,-0.063L0,-0.063L0,-2.324L0.684,-2.324Z" style="fill:white;fill-rule:nonzero;"/>
            </g>
            <g transform="matrix(1,0,0,1,199.519,28.5984)">
                <path d="M0,4.219C0.137,4.243 0.332,4.253 0.571,4.253C1.274,4.253 1.924,3.994 1.924,3.228C1.924,2.51 1.309,2.217 0.562,2.217L0,2.217L0,4.219ZM0,1.699L0.615,1.699C1.338,1.699 1.758,1.323 1.758,0.816C1.758,0.2 1.289,-0.044 0.601,-0.044C0.293,-0.044 0.112,-0.019 0,0.005L0,1.699ZM-0.679,-0.459C-0.381,-0.517 0.088,-0.566 0.562,-0.566C1.24,-0.566 1.68,-0.449 2.007,-0.185C2.285,0.02 2.446,0.332 2.446,0.747C2.446,1.255 2.109,1.699 1.558,1.9L1.558,1.914C2.056,2.041 2.642,2.456 2.642,3.238C2.642,3.692 2.461,4.033 2.197,4.292C1.831,4.629 1.235,4.785 0.376,4.785C-0.093,4.785 -0.449,4.751 -0.679,4.722L-0.679,-0.459Z" style="fill:white;fill-rule:nonzero;"/>
            </g>
            <g transform="matrix(1,0,0,1,205.262,31.4802)">
                <path d="M0,-0.074C-0.752,-0.089 -1.602,0.043 -1.602,0.776C-1.602,1.22 -1.309,1.435 -0.957,1.435C-0.459,1.435 -0.146,1.122 -0.039,0.8C-0.02,0.732 0,0.654 0,0.58L0,-0.074ZM0.664,0.947C0.664,1.279 0.679,1.596 0.723,1.855L0.103,1.855L0.044,1.376L0.02,1.376C-0.186,1.674 -0.596,1.938 -1.133,1.938C-1.899,1.938 -2.29,1.401 -2.29,0.854C-2.29,-0.059 -1.479,-0.557 -0.02,-0.553L-0.02,-0.631C-0.02,-0.943 -0.103,-1.505 -0.879,-1.505C-1.23,-1.505 -1.597,-1.392 -1.86,-1.221L-2.017,-1.676C-1.704,-1.881 -1.25,-2.012 -0.776,-2.012C0.381,-2.012 0.664,-1.221 0.664,-0.465L0.664,0.947Z" style="fill:white;fill-rule:nonzero;"/>
            </g>
            <g transform="matrix(1,0,0,1,0,18.6045)">
                <rect x="207.249" y="9.184" width="0.688" height="5.547" style="fill:white;"/>
            </g>
            <g transform="matrix(1,0,0,1,211.302,31.4802)">
                <path d="M0,-0.074C-0.747,-0.089 -1.597,0.043 -1.597,0.776C-1.597,1.22 -1.304,1.435 -0.952,1.435C-0.459,1.435 -0.146,1.122 -0.039,0.8C-0.015,0.732 0,0.654 0,0.58L0,-0.074ZM0.664,0.947C0.664,1.279 0.679,1.596 0.728,1.855L0.103,1.855L0.049,1.376L0.024,1.376C-0.186,1.674 -0.591,1.938 -1.133,1.938C-1.895,1.938 -2.285,1.401 -2.285,0.854C-2.285,-0.059 -1.475,-0.557 -0.015,-0.553L-0.015,-0.631C-0.015,-0.943 -0.103,-1.505 -0.874,-1.505C-1.226,-1.505 -1.592,-1.392 -1.86,-1.221L-2.017,-1.676C-1.704,-1.881 -1.25,-2.012 -0.771,-2.012C0.386,-2.012 0.664,-1.221 0.664,-0.465L0.664,0.947Z" style="fill:white;fill-rule:nonzero;"/>
            </g>
            <g transform="matrix(1,0,0,1,213.294,32.2271)">
                <path d="M0,-1.651C0,-2.042 -0.01,-2.359 -0.034,-2.672L0.576,-2.672L0.615,-2.047L0.63,-2.047C0.82,-2.408 1.255,-2.759 1.88,-2.759C2.402,-2.759 3.218,-2.447 3.218,-1.148L3.218,1.108L2.529,1.108L2.529,-1.07C2.529,-1.68 2.3,-2.188 1.655,-2.188C1.201,-2.188 0.85,-1.866 0.732,-1.485C0.703,-1.397 0.688,-1.285 0.688,-1.163L0.688,1.108L0,1.108L0,-1.651Z" style="fill:white;fill-rule:nonzero;"/>
            </g>
            <g transform="matrix(1,0,0,1,220.54,29.7023)">
                <path d="M0,3.491C-0.181,3.589 -0.581,3.716 -1.089,3.716C-2.227,3.716 -2.969,2.934 -2.969,1.782C-2.969,0.62 -2.173,-0.225 -0.938,-0.225C-0.532,-0.225 -0.171,-0.122 0.015,-0.03L-0.142,0.503C-0.308,0.405 -0.562,0.322 -0.938,0.322C-1.807,0.322 -2.275,0.962 -2.275,1.753C-2.275,2.627 -1.714,3.164 -0.962,3.164C-0.571,3.164 -0.313,3.061 -0.117,2.978L0,3.491Z" style="fill:white;fill-rule:nonzero;"/>
            </g>
            <g transform="matrix(1,0,0,1,223.909,31.8071)">
                <path d="M0,-0.728C0.01,-1.167 -0.181,-1.846 -0.952,-1.846C-1.646,-1.846 -1.948,-1.207 -2.007,-0.728L0,-0.728ZM-2.012,-0.24C-1.997,0.693 -1.401,1.074 -0.718,1.074C-0.225,1.074 0.073,0.991 0.327,0.878L0.444,1.372C0.2,1.484 -0.21,1.611 -0.811,1.611C-1.973,1.611 -2.671,0.839 -2.671,-0.298C-2.671,-1.441 -1.997,-2.339 -0.898,-2.339C0.337,-2.339 0.669,-1.25 0.669,-0.557C0.669,-0.415 0.649,-0.308 0.64,-0.24L-2.012,-0.24Z" style="fill:white;fill-rule:nonzero;"/>
            </g>
            <g transform="matrix(1,0,0,1,227.879,27.7049)">
                <path d="M0,5.63L0,2.373L-0.537,2.373L-0.537,1.851L0,1.851L0,1.67C0,1.143 0.117,0.654 0.43,0.352C0.693,0.103 1.035,0 1.357,0C1.602,0 1.807,0.054 1.943,0.108L1.846,0.64C1.748,0.591 1.602,0.552 1.406,0.552C0.82,0.552 0.674,1.069 0.674,1.646L0.674,1.851L1.592,1.851L1.592,2.373L0.674,2.373L0.674,5.63L0,5.63Z" style="fill:white;fill-rule:nonzero;"/>
            </g>
            <g transform="matrix(1,0,0,1,230.623,31.431)">
                <path d="M0,0.024C0,0.849 0.479,1.474 1.152,1.474C1.807,1.474 2.295,0.859 2.295,0.004C2.295,-0.635 1.973,-1.446 1.162,-1.446C0.352,-1.446 0,-0.699 0,0.024M2.998,-0.02C2.998,1.381 2.031,1.987 1.113,1.987C0.098,1.987 -0.693,1.24 -0.693,0.044C-0.693,-1.221 0.137,-1.963 1.182,-1.963C2.266,-1.963 2.998,-1.172 2.998,-0.02" style="fill:white;fill-rule:nonzero;"/>
            </g>
            <g transform="matrix(1,0,0,1,234.705,32.0704)">
                <path d="M0,-1.338C0,-1.782 -0.01,-2.163 -0.029,-2.515L0.576,-2.515L0.596,-1.773L0.625,-1.773C0.801,-2.28 1.211,-2.603 1.67,-2.603C1.748,-2.603 1.807,-2.593 1.865,-2.578L1.865,-1.929C1.797,-1.943 1.729,-1.953 1.631,-1.953C1.152,-1.953 0.811,-1.587 0.713,-1.069C0.693,-0.977 0.684,-0.869 0.684,-0.752L0.684,1.265L0,1.265L0,-1.338Z" style="fill:white;fill-rule:nonzero;"/>
            </g>
            <g transform="matrix(1,0,0,1,239.373,33.3353)">
                <path d="M0,-5.264L0.684,-5.264L0.684,-0.572L2.93,-0.572L2.93,0L0,0L0,-5.264Z" style="fill:white;fill-rule:nonzero;"/>
            </g>
            <g transform="matrix(1,0,0,1,0,18.8765)">
                <path d="M243.26,10.679L243.944,10.679L243.944,14.458L243.26,14.458L243.26,10.679ZM244.021,9.615C244.031,9.849 243.855,10.035 243.582,10.035C243.338,10.035 243.172,9.849 243.172,9.615C243.172,9.375 243.348,9.185 243.602,9.185C243.855,9.185 244.021,9.375 244.021,9.615" style="fill:white;fill-rule:nonzero;"/>
            </g>
            <g transform="matrix(1,0,0,1,245.369,27.7049)">
                <path d="M0,5.63L0,2.373L-0.527,2.373L-0.527,1.851L0,1.851L0,1.67C0,1.143 0.117,0.654 0.439,0.352C0.693,0.103 1.045,0 1.357,0C1.602,0 1.816,0.054 1.943,0.108L1.855,0.64C1.758,0.591 1.611,0.552 1.416,0.552C0.83,0.552 0.684,1.069 0.684,1.646L0.684,1.851L1.592,1.851L1.592,2.373L0.684,2.373L0.684,5.63L0,5.63Z" style="fill:white;fill-rule:nonzero;"/>
            </g>
            <g transform="matrix(1,0,0,1,250.096,31.8071)">
                <path d="M0,-0.728C0.01,-1.167 -0.176,-1.846 -0.957,-1.846C-1.65,-1.846 -1.953,-1.207 -2.012,-0.728L0,-0.728ZM-2.012,-0.24C-2.002,0.693 -1.406,1.074 -0.723,1.074C-0.225,1.074 0.068,0.991 0.332,0.878L0.449,1.372C0.205,1.484 -0.215,1.611 -0.811,1.611C-1.973,1.611 -2.676,0.839 -2.676,-0.298C-2.676,-1.441 -2.002,-2.339 -0.898,-2.339C0.332,-2.339 0.664,-1.25 0.664,-0.557C0.664,-0.415 0.645,-0.308 0.645,-0.24L-2.012,-0.24Z" style="fill:white;fill-rule:nonzero;"/>
            </g>
            <g transform="matrix(1,0,0,1,112.392,22.2212)">
                <path d="M0,-9.106L-4.795,-9.106L-4.795,-5.703L0,-5.703L0,-4.116L-4.795,-4.116L-4.795,1.592L-6.558,1.592L-6.558,-10.698L0,-10.698L0,-9.106Z" style="fill:white;fill-rule:nonzero;"/>
            </g>
            <g transform="matrix(-1,0,0,1,232.654,-7.1825)">
                <rect x="115.443" y="18.706" width="1.768" height="12.29" style="fill:white;"/>
            </g>
            <g transform="matrix(1,0,0,1,129.686,22.2212)">
                <path d="M0,-9.106L-4.253,-9.106L-4.253,1.592L-6.025,1.592L-6.025,-9.106L-10.273,-9.106L-10.273,-10.698L0,-10.698L0,-9.106Z" style="fill:white;fill-rule:nonzero;"/>
            </g>
            <g transform="matrix(1,0,0,1,143.241,11.5234)">
                <path d="M0,12.29L-1.519,12.29L-9.731,2.832L-9.731,12.29L-11.391,12.29L-11.391,0L-9.985,0L-1.66,9.517L-1.66,0L0,0L0,12.29Z" style="fill:white;fill-rule:nonzero;"/>
            </g>
            <g transform="matrix(1,0,0,1,154.071,22.2212)">
                <path d="M0,-9.106L-5.206,-9.106L-5.206,-5.4L-0.182,-5.4L-0.182,-3.813L-5.206,-3.813L-5.206,0.01L0.166,0.01L0.166,1.592L-6.968,1.592L-6.968,-10.698L0,-10.698L0,-9.106Z" style="fill:white;fill-rule:nonzero;"/>
            </g>
            <g transform="matrix(1,0,0,1,163.748,21.1135)">
                <path d="M0,-6.885C-1.044,-7.876 -2.056,-8.164 -2.886,-8.164C-4.019,-8.164 -4.833,-7.569 -4.833,-6.704C-4.833,-4.341 0.488,-4.38 0.488,-0.469C0.488,1.46 -0.972,2.866 -2.954,2.866C-4.292,2.866 -5.37,2.505 -6.396,1.728L-6.396,-0.508C-5.497,0.649 -4.36,1.279 -3.153,1.279C-1.782,1.279 -1.157,0.415 -1.157,-0.274C-1.157,-2.813 -6.47,-3.101 -6.47,-6.47C-6.47,-8.472 -4.989,-9.751 -2.743,-9.751C-1.806,-9.751 -0.864,-9.458 0,-8.887L0,-6.885Z" style="fill:white;fill-rule:nonzero;"/>
            </g>
            <g transform="matrix(1,0,0,1,173.802,21.1135)">
                <path d="M0,-6.885C-1.045,-7.876 -2.056,-8.164 -2.886,-8.164C-4.019,-8.164 -4.829,-7.569 -4.829,-6.704C-4.829,-4.341 0.483,-4.38 0.483,-0.469C0.483,1.46 -0.972,2.866 -2.959,2.866C-4.287,2.866 -5.366,2.505 -6.396,1.728L-6.396,-0.508C-5.493,0.649 -4.36,1.279 -3.154,1.279C-1.782,1.279 -1.152,0.415 -1.152,-0.274C-1.152,-2.813 -6.47,-3.101 -6.47,-6.47C-6.47,-8.472 -4.99,-9.751 -2.739,-9.751C-1.802,-9.751 -0.864,-9.458 0,-8.887L0,-6.885Z" style="fill:white;fill-rule:nonzero;"/>
            </g>
            <g transform="matrix(1,0,0,1,185.164,18.7642)">
                <path d="M0,-2.192L1.621,-2.192C2.471,-2.192 3.301,-2.553 3.301,-3.598C3.301,-4.516 2.705,-4.985 1.553,-4.985L0,-4.985L0,-2.192ZM2.437,-7.241C4.956,-7.241 6.45,-5.546 6.45,-3.706C6.45,-2.353 5.752,-1.342 4.346,-0.698C5.61,-0.068 5.986,1.446 7.715,5.049L4.346,5.049C3.027,2.422 2.544,0.059 0.884,0.059L0,0.059L0,5.049L-3.057,5.049L-3.057,-7.241L2.437,-7.241Z" style="fill:white;fill-rule:nonzero;"/>
            </g>
            <g transform="matrix(1,0,0,1,203.289,11.5234)">
                <path d="M0,12.29L-9.063,12.29L-9.063,0L-0.127,0L-0.127,2.256L-6.001,2.256L-6.001,4.834L-0.4,4.834L-0.4,7.085L-6.001,7.085L-6.001,10.039L0,10.039L0,12.29Z" style="fill:white;fill-rule:nonzero;"/>
            </g>
            <g transform="matrix(1,0,0,1,208.284,18.7109)">
                <path d="M0,-2.085L1.426,-2.085C2.827,-2.085 3.335,-2.593 3.335,-3.511C3.335,-4.551 2.734,-4.932 1.079,-4.932L0,-4.932L0,-2.085ZM2.412,-7.188C5.225,-7.188 6.489,-5.22 6.489,-3.545C6.489,-1.816 5.259,0.166 2.432,0.166L0,0.166L0,5.103L-3.062,5.103L-3.062,-7.188L2.412,-7.188Z" style="fill:white;fill-rule:nonzero;"/>
            </g>
            <g transform="matrix(1,0,0,1,228.348,23.9794)">
                <path d="M0,-12.456L0,-5.478C0,-1.406 -2.773,0 -6.147,0C-9.717,0 -12.29,-1.66 -12.29,-5.459L-12.29,-12.456L-9.229,-12.456L-9.229,-5.391C-9.229,-3.623 -7.949,-2.559 -6.182,-2.559C-4.561,-2.559 -3.066,-3.408 -3.066,-5.605L-3.066,-12.456L0,-12.456Z" style="fill:white;fill-rule:nonzero;"/>
            </g>
            <g transform="matrix(1,0,0,1,233.309,13.7745)">
                <path d="M0,7.788L1.729,7.788C3.418,7.788 4.014,7.339 4.014,6.274C4.014,5.371 3.223,4.888 2.139,4.888L0,4.888L0,7.788ZM0,2.637L1.602,2.637C2.715,2.637 3.164,1.953 3.164,1.299C3.164,0.669 2.715,0.005 1.602,0.005L0,0.005L0,2.637ZM2.246,-2.251C5.146,-2.251 6.318,-0.537 6.318,0.835C6.318,1.86 5.674,2.778 4.648,3.281C6.396,3.735 7.256,4.995 7.256,6.435C7.256,7.842 6.504,10.039 2.92,10.039L-3.066,10.039L-3.066,-2.251L2.246,-2.251Z" style="fill:white;fill-rule:nonzero;"/>
            </g>
            <g transform="matrix(1,0,0,1,251.443,11.5234)">
                <path d="M0,12.29L-9.375,12.29L-9.375,0L-6.309,0L-6.309,10.039L0,10.039L0,12.29Z" style="fill:white;fill-rule:nonzero;"/>
            </g>
            <g transform="matrix(-1,0,0,1,508.512,-7.1825)">
                <rect x="252.723" y="18.706" width="3.066" height="12.29" style="fill:white;"/>
            </g>
            <g transform="matrix(1,0,0,1,269.108,12.5879)">
                <path d="M0,10.166C-1.709,11.045 -3.008,11.392 -4.824,11.392C-9.6,11.392 -11.981,8.291 -11.981,5.117C-11.981,1.841 -9.297,-1.226 -4.59,-1.226C-2.881,-1.226 -1.348,-0.864 -0.146,-0.142L-0.146,2.598C-1.494,1.841 -2.861,1.333 -4.375,1.333C-6.992,1.333 -8.828,2.886 -8.828,5.063C-8.828,7.266 -7.012,8.833 -4.443,8.833C-2.842,8.833 -1.768,8.325 0,7.48L0,10.166Z" style="fill:white;fill-rule:nonzero;"/>
            </g>
        </g>
    </g>
</svg>