<?xml version="1.0" encoding="UTF-8" standalone="no"?>
<!DOCTYPE svg PUBLIC "-//W3C//DTD SVG 1.1//EN" "http://www.w3.org/Graphics/SVG/1.1/DTD/svg11.dtd">
<svg width="100%" height="100%" viewBox="0 0 2123 225" version="1.1" xmlns="http://www.w3.org/2000/svg" xmlns:xlink="http://www.w3.org/1999/xlink" xml:space="preserve" xmlns:serif="http://www.serif.com/" style="fill-rule:evenodd;clip-rule:evenodd;stroke-linejoin:round;stroke-miterlimit:2;">
    <g transform="matrix(1,0,0,1,-118.111,-63.7588)">
        <g transform="matrix(4.16667,0,0,4.16667,777.678,100.367)">
            <path d="M0,36.327C-0.864,36.276 -0.688,36.286 -0.552,35.902C-0.088,35.203 1.449,35.401 1.66,34.441C0.258,31.925 -3.726,31.977 -5.657,29.989C-9.115,29.1 -12.268,27.913 -14.889,26.17C-17.697,26.33 -19.293,25.276 -21.885,25.215C-21.802,27.4 -23.29,31.795 -22.15,33.714C-21.675,34.52 -22.268,35.311 -22.649,35.438C-22.919,35.523 -23.467,35.286 -24.553,35.397C-25.943,35.537 -27.887,36.059 -27.935,35.713C-28.069,34.509 -24.515,34.549 -24.431,32.539C-23.975,28.766 -25.757,25.392 -24.431,22.674C-23.061,21.707 -20.325,22.109 -18.073,22.037C-17.411,21.144 -18.456,21.13 -18.882,19.168C-19.222,15.544 -17.835,13.36 -15.845,11.854C-16.239,9.883 -17.144,6.44 -16.839,3.264C-16.735,2.24 -16.251,1.322 -16.208,0.402C-16.121,-1.277 -16.687,-3.257 -15.121,-4.522C-14.858,-4.522 -14.597,-4.607 -14.564,-4.402C-14.355,-3.29 -13.252,-0.753 -14.889,-0.238C-14.711,2.567 -15.205,5.022 -14.889,7.084C-13.299,6.76 -11.806,6.239 -10.428,6.76C-9.059,7.289 -8.55,10.479 -9.4,11.228C-10.253,11.973 -10.75,12.159 -12.347,12.172C-11.493,16.063 -15.001,16.676 -13.621,20.123C-12.54,21.261 -11.308,21.261 -10.884,23.628C-10.499,24.644 -7.433,26.569 -5.657,28.082C-0.528,28.776 1.406,32.682 4.518,35.397C4.227,36.101 1.06,36.388 0,36.327M-12.754,-8.786C-27.642,-8.786 -39.706,3.283 -39.706,18.161C-39.706,33.048 -27.642,45.113 -12.754,45.113C2.13,45.113 14.185,33.048 14.185,18.161C14.185,3.283 2.13,-8.786 -12.754,-8.786" style="fill:rgb(26,23,27);fill-rule:nonzero;"/>
        </g>
        <g transform="matrix(4.16667,0,0,4.16667,266.736,154.536)">
            <path d="M0,10.323C-1.082,11.561 -2.641,12.993 -2.625,14.263C-2.605,15.742 -0.099,16.936 -0.334,17.698C-0.581,18.468 -3.126,17.187 -3.934,16.521C-4.57,16.275 -5.43,16.267 -5.825,15.77C-6.095,14.35 -4.728,13.722 -4.126,12.77C-3.028,11.024 -3.015,8.814 -1.679,7.13C-3.257,6.816 -5.237,6.926 -6.957,6.75C-8.009,7.914 -8.6,9.319 -9.584,10.513C-10.022,11.053 -10.573,11.603 -11.085,12.205C-11.52,12.723 -11.887,13.511 -12.397,13.89C-12.97,14.332 -13.85,14.433 -14.463,14.833C-15.098,15.251 -15.694,15.848 -16.341,16.34C-18.187,17.726 -20.174,19.209 -20.85,21.974C-20.958,22.717 -20.118,23.061 -20.671,23.668C-22.067,23.688 -21.747,22.76 -22.008,21.388C-22.243,20.212 -23.337,19.39 -23.111,18.405C-22.961,17.758 -21.55,17.885 -20.85,17.465C-19.225,16.483 -18.581,14.479 -17.286,13.33C-16.066,12.246 -14.655,12.161 -13.897,11.08C-13.526,10.534 -13.321,9.454 -12.96,8.634C-12.656,7.945 -12.015,7.237 -11.833,6.564C-11.546,5.531 -11.925,4.77 -11.641,3.555C-11.363,2.348 -10.358,1.063 -10.143,-0.388C-9.99,-1.384 -10.103,-2.491 -10.143,-3.583C-10.161,-4.357 -10.161,-4.74 -10.249,-5.862C-10.987,-5.395 -13.063,-4.973 -12.9,-4.151C-12.678,-3.021 -12.538,-1.774 -11.927,-0.85C-11.727,-0.546 -11.657,-0.345 -11.363,-0.053C-11.201,0.549 -11.172,0.446 -11.311,0.746C-11.297,1.383 -11.771,1.674 -12.21,1.866C-13.695,0.771 -13.218,1.55 -13.436,-0.35C-13.612,-1.915 -15.187,-4.239 -14.316,-5.36C-13.337,-7.079 -9.719,-8.987 -7.802,-9.876C-7.793,-13.098 -8.302,-14.109 -6.189,-15.046C-3.752,-16.125 -2.136,-11.996 -3.752,-9.783C-4.188,-9.35 -4.971,-9.25 -5.446,-8.844C-4.728,-7.058 -3.257,-5.13 -2.167,-3.708C-1.415,-4.437 -0.372,-6.628 -0.274,-7.043C-0.224,-8.75 -0.664,-8.726 -0.541,-9.048C-0.336,-9.578 0.044,-8.477 0.233,-8.599C0.702,-9.201 0.876,-10.947 1.316,-10.721C1.868,-10.437 2.172,-9.855 2.25,-9.219C2.368,-8.463 1.719,-7.457 1.131,-6.218C0.226,-4.314 -1.159,-1.295 -1.872,-1.14C-2.584,-0.985 -3.463,-1.969 -3.463,-1.969C-3.463,-1.969 -4.463,-3.142 -4.511,-2.986C-4.755,-2.172 -4.97,0.632 -5.173,1.896C-4.155,2.752 -2.234,2.768 -0.744,3.555C0.307,4.111 2.479,5.2 2.64,6.187C2.813,7.392 0.983,9.224 0,10.323M-8.724,-21.786C-23.607,-21.786 -35.67,-9.719 -35.67,5.159C-35.67,20.044 -23.607,32.109 -8.724,32.109C6.169,32.109 18.224,20.044 18.224,5.159C18.224,-9.719 6.169,-21.786 -8.724,-21.786" style="fill:rgb(26,23,27);fill-rule:nonzero;"/>
        </g>
        <g transform="matrix(4.16667,0,0,4.16667,934.977,215.142)">
            <path d="M0,-18.228L-9.583,-18.228L-9.583,-11.416L0,-11.416L0,-8.247L-9.583,-8.247L-9.583,3.175L-13.116,3.175L-13.116,-21.403L0,-21.403L0,-18.228Z" style="fill:rgb(26,23,27);fill-rule:nonzero;"/>
        </g>
        <g transform="matrix(-4.16667,0,0,4.16667,1937.23,-29.8946)">
            <rect x="230.899" y="37.406" width="3.533" height="24.578" style="fill:rgb(26,23,27);"/>
        </g>
        <g transform="matrix(4.16667,0,0,4.16667,1079.1,215.142)">
            <path d="M0,-18.228L-8.508,-18.228L-8.508,3.175L-12.045,3.175L-12.045,-18.228L-20.545,-18.228L-20.545,-21.403L0,-21.403L0,-18.228Z" style="fill:rgb(26,23,27);fill-rule:nonzero;"/>
        </g>
        <g transform="matrix(4.16667,0,0,4.16667,1192.04,125.962)">
            <path d="M0,24.578L-3.034,24.578L-19.461,5.661L-19.461,24.578L-22.779,24.578L-22.779,0L-19.966,0L-3.315,19.029L-3.315,0L0,0L0,24.578Z" style="fill:rgb(26,23,27);fill-rule:nonzero;"/>
        </g>
        <g transform="matrix(4.16667,0,0,4.16667,1282.33,215.142)">
            <path d="M0,-18.228L-10.413,-18.228L-10.413,-10.809L-0.362,-10.809L-0.362,-7.634L-10.413,-7.634L-10.413,0.004L0.324,0.004L0.324,3.175L-13.94,3.175L-13.94,-21.403L0,-21.403L0,-18.228Z" style="fill:rgb(26,23,27);fill-rule:nonzero;"/>
        </g>
        <g transform="matrix(4.16667,0,0,4.16667,1362.94,205.83)">
            <path d="M0,-13.759C-2.088,-15.745 -4.107,-16.32 -5.767,-16.32C-8.034,-16.32 -9.663,-15.126 -9.663,-13.397C-9.663,-8.675 0.981,-8.754 0.981,-0.928C0.981,2.925 -1.941,5.734 -5.903,5.734C-8.579,5.734 -10.734,5.014 -12.791,3.463L-12.791,-1.003C-10.989,1.305 -8.72,2.566 -6.304,2.566C-3.563,2.566 -2.308,0.84 -2.308,-0.536C-2.308,-5.615 -12.936,-6.195 -12.936,-12.931C-12.936,-16.933 -9.977,-19.493 -5.479,-19.493C-3.605,-19.493 -1.724,-18.913 0,-17.765L0,-13.759Z" style="fill:rgb(26,23,27);fill-rule:nonzero;"/>
        </g>
        <g transform="matrix(4.16667,0,0,4.16667,1446.75,205.83)">
            <path d="M0,-13.759C-2.09,-15.745 -4.113,-16.32 -5.771,-16.32C-8.04,-16.32 -9.658,-15.126 -9.658,-13.397C-9.658,-8.675 0.969,-8.754 0.969,-0.928C0.969,2.925 -1.94,5.734 -5.918,5.734C-8.578,5.734 -10.735,5.014 -12.797,3.463L-12.797,-1.003C-10.991,1.305 -8.728,2.566 -6.31,2.566C-3.57,2.566 -2.31,0.84 -2.31,-0.536C-2.31,-5.615 -12.942,-6.195 -12.942,-12.931C-12.942,-16.933 -9.984,-19.493 -5.479,-19.493C-3.607,-19.493 -1.737,-18.913 0,-17.765L0,-13.759Z" style="fill:rgb(26,23,27);fill-rule:nonzero;"/>
        </g>
        <g transform="matrix(4.16667,0,0,4.16667,1541.44,186.315)">
            <path d="M0,-4.391L3.246,-4.391C4.938,-4.391 6.6,-5.114 6.6,-7.205C6.6,-9.041 5.409,-9.975 3.104,-9.975L0,-9.975L0,-4.391ZM4.87,-14.484C9.912,-14.484 12.898,-11.098 12.898,-7.421C12.898,-4.718 11.498,-2.698 8.689,-1.403C11.214,-0.139 11.972,2.888 15.429,10.093L8.689,10.093C6.051,4.833 5.086,0.113 1.763,0.113L0,0.113L0,10.093L-6.119,10.093L-6.119,-14.484L4.87,-14.484Z" style="fill:rgb(26,23,27);fill-rule:nonzero;"/>
        </g>
        <g transform="matrix(4.16667,0,0,4.16667,1692.48,125.962)">
            <path d="M0,24.578L-18.133,24.578L-18.133,0L-0.257,0L-0.257,4.509L-12.007,4.509L-12.007,9.661L-0.802,9.661L-0.802,14.162L-12.007,14.162L-12.007,20.075L0,20.075L0,24.578Z" style="fill:rgb(26,23,27);fill-rule:nonzero;"/>
        </g>
        <g transform="matrix(4.16667,0,0,4.16667,1734.09,185.863)">
            <path d="M0,-4.174L2.851,-4.174C5.656,-4.174 6.672,-5.188 6.672,-7.025C6.672,-9.108 5.474,-9.867 2.158,-9.867L0,-9.867L0,-4.174ZM4.827,-14.376C10.451,-14.376 12.979,-10.448 12.979,-7.096C12.979,-3.634 10.525,0.327 4.862,0.327L0,0.327L0,10.202L-6.124,10.202L-6.124,-14.376L4.827,-14.376Z" style="fill:rgb(26,23,27);fill-rule:nonzero;"/>
        </g>
        <g transform="matrix(4.16667,0,0,4.16667,1901.28,229.718)">
            <path d="M0,-24.901L0,-10.954C0,-2.809 -5.551,0 -12.29,0C-19.427,0 -24.579,-3.313 -24.579,-10.914L-24.579,-24.901L-18.457,-24.901L-18.457,-10.772C-18.457,-7.242 -15.894,-5.115 -12.363,-5.115C-9.118,-5.115 -6.129,-6.81 -6.129,-11.207L-6.129,-24.901L0,-24.901Z" style="fill:rgb(26,23,27);fill-rule:nonzero;"/>
        </g>
        <g transform="matrix(4.16667,0,0,4.16667,1942.63,144.727)">
            <path d="M0,15.571L3.456,15.571C6.844,15.571 8.031,14.668 8.031,12.542C8.031,10.74 6.445,9.77 4.288,9.77L0,9.77L0,15.571ZM0,5.263L3.2,5.263C5.438,5.263 6.333,3.894 6.333,2.594C6.333,1.335 5.438,0.006 3.2,0.006L0,0.006L0,5.263ZM4.498,-4.503C10.302,-4.503 12.647,-1.081 12.647,1.661C12.647,3.715 11.349,5.55 9.293,6.559C12.795,7.463 14.523,9.986 14.523,12.869C14.523,15.678 13.009,20.074 5.837,20.074L-6.134,20.074L-6.134,-4.503L4.498,-4.503Z" style="fill:rgb(26,23,27);fill-rule:nonzero;"/>
        </g>
        <g transform="matrix(4.16667,0,0,4.16667,2093.75,125.962)">
            <path d="M0,24.578L-18.745,24.578L-18.745,0L-12.615,0L-12.615,20.075L0,20.075L0,24.578Z" style="fill:rgb(26,23,27);fill-rule:nonzero;"/>
        </g>
        <g transform="matrix(-4.16667,0,0,4.16667,4236.01,-29.8946)">
            <rect x="505.454" y="37.406" width="6.13" height="24.578" style="fill:rgb(26,23,27);"/>
        </g>
        <g transform="matrix(4.16667,0,0,4.16667,2241,134.804)">
            <path d="M0,20.333C-3.423,22.097 -6.018,22.78 -9.659,22.78C-19.207,22.78 -23.964,16.587 -23.964,10.24C-23.964,3.681 -18.595,-2.447 -9.189,-2.447C-5.763,-2.447 -2.703,-1.723 -0.291,-0.284L-0.291,5.196C-2.992,3.681 -5.725,2.672 -8.758,2.672C-13.985,2.672 -17.658,5.775 -17.658,10.132C-17.658,14.532 -14.02,17.665 -8.898,17.665C-5.689,17.665 -3.532,16.655 0,14.963L0,20.333Z" style="fill:rgb(26,23,27);fill-rule:nonzero;"/>
        </g>
        <g transform="matrix(4.16667,0,0,4.16667,523.968,228.328)">
            <path d="M0,-25.097C-0.897,-24.23 -2.551,-23.169 -4.257,-23.049C-5.044,-22.99 -6.099,-23.323 -6.844,-23.193C-7.2,-22.161 -7.254,-21.091 -7.625,-19.97C-7.94,-18.992 -8.113,-18.062 -7.865,-16.308C-7.63,-14.679 -6.558,-12.231 -6.311,-10.449C-6.186,-9.624 -6.127,-8.409 -6.149,-7.518C-6.198,-6.306 -6.761,-5.262 -6.593,-3.564C-6.526,-2.84 -6.12,-2.135 -6.008,-1.223C-5.706,1.383 -6.484,3.932 -5.715,5.957C-5.436,6.724 -4.625,7.159 -4.547,8.008C-4.909,8.331 -5.375,8.54 -6.149,8.443C-6.808,8.025 -6.849,6.985 -7.475,6.545C-7.237,5.017 -7.512,3.445 -8.06,1.851C-8.274,1.242 -8.7,0.619 -8.789,0.095C-8.947,-0.826 -8.677,-1.78 -8.789,-2.689C-8.968,-4.105 -9.577,-5.592 -9.965,-6.935C-10.374,-8.305 -10.618,-9.746 -11.279,-10.887C-11.958,-9.006 -12.072,-6.904 -12.599,-4.587C-12.763,-3.893 -13.146,-3.339 -13.188,-2.689C-13.243,-1.828 -12.918,-0.948 -13.034,-0.051C-13.217,1.254 -14.075,2.604 -14.214,3.902C-14.301,4.746 -13.934,5.72 -14.068,6.402C-14.169,6.926 -14.493,7.001 -14.799,7.424C-15.066,7.789 -15.063,8.318 -15.532,8.443C-16.196,8.468 -16.688,8.328 -16.994,8.008C-17.062,7.132 -15.819,6.528 -15.684,5.516C-15.448,3.855 -16.029,1.075 -15.819,-1.366C-15.726,-2.508 -15.34,-3.489 -15.383,-4.301C-15.42,-5.049 -15.855,-5.679 -15.98,-6.499C-16.153,-7.806 -16.125,-9.514 -15.98,-10.741C-15.74,-12.555 -15.42,-14.142 -15.093,-15.722C-14.895,-16.694 -14.78,-18.031 -14.944,-18.947C-15.089,-19.675 -15.075,-20.175 -15.183,-20.85C-15.328,-21.778 -15.115,-22.674 -15.724,-23.339C-18.206,-22.537 -20.951,-23.826 -22.417,-24.951C-22.979,-27.289 -21.704,-29.796 -22.563,-31.927C-22.572,-31.927 -22.563,-32.889 -22.532,-33.146L-22.532,-33.16C-21.75,-33.51 -21.035,-33.927 -20.041,-33.309C-20.023,-32.924 -20.069,-32.451 -20.041,-32.061C-20.034,-31.903 -19.988,-31.808 -20.055,-31.577C-20.128,-31.351 -20.469,-30.979 -20.805,-30.813C-20.828,-29.266 -20.313,-28.265 -20.37,-26.709C-19.398,-25.979 -17.269,-26.519 -15.98,-26.563C-15.453,-26.576 -14.799,-26.342 -14.36,-26.417C-12.987,-26.634 -12.592,-27.279 -12.735,-28.216C-12.803,-28.581 -13.204,-28.763 -13.332,-29.634C-13.466,-30.467 -12.933,-32.591 -11.43,-32.71C-9.94,-32.839 -9.175,-31.29 -9.233,-29.634C-9.253,-28.855 -9.377,-28.826 -9.786,-28.281C-10.019,-27.952 -9.951,-27.634 -9.678,-27.289C-9.057,-26.314 -8.008,-26.612 -6.593,-26.563C-6.062,-26.544 -5.556,-26.147 -4.988,-26.122C-4.013,-26.07 -3.134,-26.735 -2.203,-26.563C-2.083,-28.425 -1.313,-30.478 -2.322,-31.32C-2.619,-32.07 -2.347,-32.626 -2.36,-33.104C-1.522,-33.453 -0.724,-33.627 -0.006,-33.051C0.013,-32.737 0.039,-32.231 0.067,-31.919C0.056,-31.919 0.053,-31.535 0.047,-31.538C-0.686,-30.13 0.438,-27.66 0,-25.097M-11.168,-39.496C-26.043,-39.496 -38.112,-27.429 -38.112,-12.55C-38.112,2.335 -26.043,14.399 -11.168,14.399C3.716,14.399 15.783,2.335 15.783,-12.55C15.783,-27.429 3.716,-39.496 -11.168,-39.496" style="fill:rgb(26,23,27);fill-rule:nonzero;"/>
        </g>
    </g>
</svg>