<?xml version="1.0" encoding="UTF-8" standalone="no"?>
<!DOCTYPE svg PUBLIC "-//W3C//DTD SVG 1.1//EN" "http://www.w3.org/Graphics/SVG/1.1/DTD/svg11.dtd">
<svg width="100%" height="100%" viewBox="0 0 2363 2363" version="1.1" xmlns="http://www.w3.org/2000/svg" xmlns:xlink="http://www.w3.org/1999/xlink" xml:space="preserve" xmlns:serif="http://www.serif.com/" style="fill-rule:evenodd;clip-rule:evenodd;stroke-linejoin:round;stroke-miterlimit:2;">
    <g transform="matrix(4.16667,0,0,4.16667,0,0)">
        <rect x="0" y="0" width="566.93" height="566.929" style="fill:rgb(248,179,33);"/>
    </g>
    <g transform="matrix(4.16667,0,0,4.16667,360.067,1460.3)">
        <path d="M0,-16.397L8.83,-16.397L8.83,-14.621L2.115,-14.621L2.115,-9.172L8.316,-9.172L8.316,-7.42L2.115,-7.42L2.115,0L0,0L0,-16.397Z" style="fill:white;fill-rule:nonzero;"/>
    </g>
    <g transform="matrix(4.16667,0,0,4.16667,0,489.975)">
        <path d="M98.234,221.104L100.377,221.104L100.377,232.878L98.234,232.878L98.234,221.104ZM100.619,217.797C100.643,218.525 100.107,219.106 99.258,219.106C98.502,219.106 97.965,218.525 97.965,217.797C97.965,217.041 98.525,216.457 99.305,216.457C100.107,216.457 100.619,217.041 100.619,217.797" style="fill:white;fill-rule:nonzero;"/>
    </g>
    <g transform="matrix(4.16667,0,0,4.16667,446.615,1461.41)">
        <path d="M0,-14.862L0,-12.041L3.061,-12.041L3.061,-10.409L0,-10.409L0,-4.061C0,-2.601 0.41,-1.776 1.602,-1.776C2.184,-1.776 2.527,-1.822 2.842,-1.924L2.939,-0.317C2.527,-0.144 1.869,0 1.043,0C0.047,0 -0.76,-0.339 -1.268,-0.924C-1.877,-1.557 -2.094,-2.601 -2.094,-3.99L-2.094,-10.409L-3.92,-10.409L-3.92,-12.041L-2.094,-12.041L-2.094,-14.206L0,-14.862Z" style="fill:white;fill-rule:nonzero;"/>
    </g>
    <g transform="matrix(4.16667,0,0,4.16667,472.233,1445.91)">
        <path d="M0,-5.135C0,-6.35 -0.023,-7.347 -0.1,-8.321L1.799,-8.321L1.922,-6.375L1.971,-6.375C2.559,-7.495 3.916,-8.589 5.861,-8.589C7.492,-8.589 10.025,-7.614 10.025,-3.577L10.025,3.454L7.883,3.454L7.883,-3.332C7.883,-5.231 7.178,-6.814 5.156,-6.814C3.746,-6.814 2.648,-5.817 2.289,-4.623C2.189,-4.357 2.139,-3.99 2.139,-3.624L2.139,3.454L0,3.454L0,-5.135Z" style="fill:white;fill-rule:nonzero;"/>
    </g>
    <g transform="matrix(4.16667,0,0,4.16667,562.435,1440.53)">
        <path d="M0,-2.286C0.027,-3.649 -0.561,-5.765 -2.971,-5.765C-5.137,-5.765 -6.082,-3.77 -6.254,-2.286L0,-2.286ZM-6.277,-0.754C-6.23,2.142 -4.381,3.333 -2.238,3.333C-0.701,3.333 0.223,3.065 1.027,2.726L1.389,4.258C0.635,4.599 -0.654,5.012 -2.529,5.012C-6.156,5.012 -8.322,2.605 -8.322,-0.946C-8.322,-4.498 -6.23,-7.298 -2.799,-7.298C1.049,-7.298 2.07,-3.916 2.07,-1.751C2.07,-1.312 2.021,-0.972 1.994,-0.754L-6.277,-0.754Z" style="fill:white;fill-rule:nonzero;"/>
    </g>
    <g transform="matrix(4.16667,0,0,4.16667,583.707,1420.35)">
        <path d="M0,7.399C0.639,7.809 1.752,8.25 2.824,8.25C4.379,8.25 5.109,7.47 5.109,6.497C5.109,5.477 4.502,4.916 2.922,4.332C0.803,3.579 -0.193,2.412 -0.193,0.999C-0.193,-0.898 1.34,-2.455 3.871,-2.455C5.063,-2.455 6.111,-2.114 6.766,-1.724L6.232,-0.168C5.768,-0.46 4.918,-0.848 3.822,-0.848C2.551,-0.848 1.852,-0.12 1.852,0.755C1.852,1.73 2.551,2.167 4.09,2.751C6.133,3.53 7.178,4.55 7.178,6.302C7.178,8.371 5.572,9.854 2.775,9.854C1.486,9.854 0.297,9.515 -0.533,9.025L0,7.399Z" style="fill:white;fill-rule:nonzero;"/>
    </g>
    <g transform="matrix(4.16667,0,0,4.16667,626.676,1420.35)">
        <path d="M0,7.399C0.631,7.809 1.75,8.25 2.824,8.25C4.379,8.25 5.109,7.47 5.109,6.497C5.109,5.477 4.498,4.916 2.924,4.332C0.809,3.579 -0.193,2.412 -0.193,0.999C-0.193,-0.898 1.336,-2.455 3.865,-2.455C5.059,-2.455 6.104,-2.114 6.762,-1.724L6.227,-0.168C5.764,-0.46 4.918,-0.848 3.822,-0.848C2.553,-0.848 1.85,-0.12 1.85,0.755C1.85,1.73 2.553,2.167 4.088,2.751C6.127,3.53 7.176,4.55 7.176,6.302C7.176,8.371 5.568,9.854 2.773,9.854C1.486,9.854 0.293,9.515 -0.537,9.025L0,7.399Z" style="fill:white;fill-rule:nonzero;"/>
    </g>
    <g transform="matrix(3.52552,2.22077,2.22077,-3.52552,658.567,1466.59)">
        <path d="M1.908,-0.551C1.572,0.936 0.743,3.49 0.023,5.136L1.908,6.609C2.539,4.564 3.073,1.707 3.104,0.376L1.908,-0.551Z" style="fill:white;fill-rule:nonzero;"/>
    </g>
    <g transform="matrix(4.16667,0,0,4.16667,716.96,1402.73)">
        <path d="M0,11.237C0.951,11.821 2.334,12.307 3.791,12.307C5.963,12.307 7.227,11.165 7.227,9.511C7.227,7.979 6.348,7.101 4.139,6.253C1.461,5.301 -0.197,3.916 -0.197,1.604C-0.197,-0.951 1.924,-2.847 5.109,-2.847C6.783,-2.847 8.006,-2.459 8.734,-2.042L8.148,-0.318C7.613,-0.61 6.521,-1.096 5.035,-1.096C2.797,-1.096 1.945,0.243 1.945,1.361C1.945,2.895 2.943,3.647 5.209,4.523C7.982,5.594 9.389,6.933 9.389,9.341C9.389,11.872 7.52,14.084 3.65,14.084C2.07,14.084 0.342,13.596 -0.533,13.014L0,11.237Z" style="fill:white;fill-rule:nonzero;"/>
    </g>
    <g transform="matrix(4.16667,0,0,4.16667,781.103,1461.41)">
        <path d="M0,-14.862L0,-12.041L3.068,-12.041L3.068,-10.409L0,-10.409L0,-4.061C0,-2.601 0.416,-1.776 1.607,-1.776C2.193,-1.776 2.531,-1.822 2.85,-1.924L2.945,-0.317C2.531,-0.144 1.875,0 1.049,0C0.053,0 -0.754,-0.339 -1.262,-0.924C-1.869,-1.557 -2.092,-2.601 -2.092,-3.99L-2.092,-10.409L-3.916,-10.409L-3.916,-12.041L-2.092,-12.041L-2.092,-14.206L0,-14.862Z" style="fill:white;fill-rule:nonzero;"/>
    </g>
    <g transform="matrix(4.16667,0,0,4.16667,806.746,1443.88)">
        <path d="M0,-4.163C0,-5.549 -0.025,-6.741 -0.098,-7.835L1.773,-7.835L1.848,-5.524L1.947,-5.524C2.482,-7.107 3.77,-8.103 5.207,-8.103C5.447,-8.103 5.621,-8.079 5.814,-8.03L5.814,-6.011C5.598,-6.061 5.377,-6.083 5.084,-6.083C3.574,-6.083 2.508,-4.941 2.211,-3.333C2.166,-3.045 2.117,-2.702 2.117,-2.337L2.117,3.94L0,3.94L0,-4.163Z" style="fill:white;fill-rule:nonzero;"/>
    </g>
    <g transform="matrix(4.16667,0,0,4.16667,872.827,1440.53)">
        <path d="M0,-2.286C0.023,-3.649 -0.559,-5.765 -2.971,-5.765C-5.133,-5.765 -6.082,-3.77 -6.25,-2.286L0,-2.286ZM-6.277,-0.754C-6.229,2.142 -4.377,3.333 -2.236,3.333C-0.703,3.333 0.219,3.065 1.021,2.726L1.389,4.258C0.631,4.599 -0.656,5.012 -2.533,5.012C-6.154,5.012 -8.32,2.605 -8.32,-0.946C-8.32,-4.498 -6.229,-7.298 -2.797,-7.298C1.049,-7.298 2.066,-3.916 2.066,-1.751C2.066,-1.312 2.02,-0.972 1.994,-0.754L-6.277,-0.754Z" style="fill:white;fill-rule:nonzero;"/>
    </g>
    <g transform="matrix(4.16667,0,0,4.16667,895.313,1445.91)">
        <path d="M0,-5.135C0,-6.35 -0.023,-7.347 -0.1,-8.321L1.801,-8.321L1.922,-6.375L1.971,-6.375C2.555,-7.495 3.916,-8.589 5.863,-8.589C7.49,-8.589 10.018,-7.614 10.018,-3.577L10.018,3.454L7.885,3.454L7.885,-3.332C7.885,-5.231 7.178,-6.814 5.158,-6.814C3.748,-6.814 2.652,-5.817 2.291,-4.623C2.189,-4.357 2.139,-3.99 2.139,-3.624L2.139,3.454L0,3.454L0,-5.135Z" style="fill:white;fill-rule:nonzero;"/>
    </g>
    <g transform="matrix(4.16667,0,0,4.16667,987.435,1461.01)">
        <path d="M0,-7.299C0,-7.663 -0.025,-7.981 -0.123,-8.273C-0.506,-9.513 -1.555,-10.533 -3.113,-10.533C-5.162,-10.533 -6.617,-8.806 -6.617,-6.082C-6.617,-3.773 -5.449,-1.851 -3.139,-1.851C-1.826,-1.851 -0.631,-2.676 -0.172,-4.039C-0.051,-4.405 0,-4.819 0,-5.182L0,-7.299ZM2.115,-1.874C2.115,0.825 1.584,2.481 0.439,3.504C-0.707,4.571 -2.361,4.914 -3.846,4.914C-5.256,4.914 -6.811,4.571 -7.758,3.94L-7.225,2.312C-6.447,2.797 -5.232,3.235 -3.77,3.235C-1.58,3.235 0.025,2.095 0.025,-0.877L0.025,-2.19L-0.025,-2.19C-0.686,-1.095 -1.947,-0.221 -3.77,-0.221C-6.689,-0.221 -8.781,-2.699 -8.781,-5.963C-8.781,-9.951 -6.18,-12.213 -3.479,-12.213C-1.436,-12.213 -0.318,-11.143 0.193,-10.171L0.24,-10.171L0.342,-11.945L2.213,-11.945C2.17,-11.092 2.115,-10.146 2.115,-8.71L2.115,-1.874Z" style="fill:white;fill-rule:nonzero;"/>
    </g>
    <g transform="matrix(4.16667,0,0,4.16667,1024.62,1461.41)">
        <path d="M0,-14.862L0,-12.041L3.063,-12.041L3.063,-10.409L0,-10.409L0,-4.061C0,-2.601 0.414,-1.776 1.605,-1.776C2.191,-1.776 2.529,-1.822 2.846,-1.924L2.943,-0.317C2.529,-0.144 1.873,0 1.051,0C0.045,0 -0.754,-0.339 -1.266,-0.924C-1.873,-1.557 -2.09,-2.601 -2.09,-3.99L-2.09,-10.409L-3.92,-10.409L-3.92,-12.041L-2.09,-12.041L-2.09,-14.206L0,-14.862Z" style="fill:white;fill-rule:nonzero;"/>
    </g>
    <g transform="matrix(4.16667,0,0,4.16667,1050.25,1460.3)">
        <path d="M0,-17.273L2.135,-17.273L2.135,-9.926L2.188,-9.926C2.531,-10.532 3.066,-11.068 3.721,-11.435C4.354,-11.797 5.109,-12.043 5.91,-12.043C7.488,-12.043 10.021,-11.068 10.021,-7.007L10.021,0L7.881,0L7.881,-6.764C7.881,-8.661 7.172,-10.267 5.152,-10.267C3.77,-10.267 2.676,-9.294 2.285,-8.126C2.162,-7.834 2.135,-7.518 2.135,-7.103L2.135,0L0,0L0,-17.273Z" style="fill:white;fill-rule:nonzero;"/>
    </g>
    <g transform="matrix(4.16667,0,0,4.16667,1159.48,1436.27)">
        <path d="M0,-0.241C-2.334,-0.29 -4.988,0.123 -4.988,2.408C-4.988,3.795 -4.061,4.453 -2.967,4.453C-1.436,4.453 -0.465,3.482 -0.119,2.483C-0.043,2.265 0,2.02 0,1.801L0,-0.241ZM2.07,2.943C2.07,3.966 2.115,4.965 2.262,5.768L0.318,5.768L0.146,4.281L0.074,4.281C-0.58,5.205 -1.852,6.034 -3.525,6.034C-5.91,6.034 -7.125,4.356 -7.125,2.655C-7.125,-0.193 -4.594,-1.751 -0.043,-1.725L-0.043,-1.969C-0.043,-2.942 -0.314,-4.694 -2.721,-4.694C-3.816,-4.694 -4.963,-4.351 -5.787,-3.818L-6.277,-5.23C-5.301,-5.861 -3.889,-6.275 -2.406,-6.275C1.193,-6.275 2.07,-3.818 2.07,-1.459L2.07,2.943Z" style="fill:white;fill-rule:nonzero;"/>
    </g>
    <g transform="matrix(4.16667,0,0,4.16667,1185.34,1445.91)">
        <path d="M0,-5.135C0,-6.35 -0.027,-7.347 -0.104,-8.321L1.795,-8.321L1.918,-6.375L1.969,-6.375C2.551,-7.495 3.91,-8.589 5.859,-8.589C7.486,-8.589 10.018,-7.614 10.018,-3.577L10.018,3.454L7.877,3.454L7.877,-3.332C7.877,-5.231 7.17,-6.814 5.152,-6.814C3.744,-6.814 2.646,-5.817 2.283,-4.623C2.186,-4.357 2.133,-3.99 2.133,-3.624L2.133,3.454L0,3.454L0,-5.135Z" style="fill:white;fill-rule:nonzero;"/>
    </g>
    <g transform="matrix(4.16667,0,0,4.16667,1277.84,1418.54)">
        <path d="M0,3.038C0,2.773 -0.023,2.407 -0.098,2.138C-0.414,0.779 -1.58,-0.341 -3.186,-0.341C-5.398,-0.341 -6.711,1.606 -6.711,4.206C-6.711,6.592 -5.545,8.563 -3.236,8.563C-1.799,8.563 -0.484,7.613 -0.098,6.009C-0.023,5.717 0,5.425 0,5.082L0,3.038ZM2.141,-7.251L2.141,6.98C2.141,8.026 2.168,9.22 2.236,10.022L0.316,10.022L0.219,7.977L0.172,7.977C-0.484,9.292 -1.92,10.289 -3.842,10.289C-6.691,10.289 -8.877,7.882 -8.877,4.306C-8.904,0.39 -6.473,-2.021 -3.596,-2.021C-1.799,-2.021 -0.584,-1.168 -0.047,-0.218L0,-0.218L0,-7.251L2.141,-7.251Z" style="fill:white;fill-rule:nonzero;"/>
    </g>
    <g transform="matrix(4.16667,0,0,4.16667,1337.83,1398.78)">
        <path d="M0,13.159C0.414,13.233 1.023,13.256 1.775,13.256C3.967,13.256 5.984,12.454 5.984,10.07C5.984,7.832 4.064,6.908 1.748,6.908L0,6.908L0,13.159ZM0,5.302L1.92,5.302C4.162,5.302 5.473,4.136 5.473,2.553C5.473,0.631 4.016,-0.125 1.867,-0.125C0.9,-0.125 0.342,-0.051 0,0.023L0,5.302ZM-2.117,-1.411C-1.193,-1.605 0.27,-1.752 1.748,-1.752C3.867,-1.752 5.23,-1.387 6.252,-0.561C7.107,0.072 7.615,1.044 7.615,2.333C7.615,3.914 6.568,5.302 4.842,5.933L4.842,5.981C6.398,6.371 8.225,7.662 8.225,10.094C8.225,11.508 7.664,12.577 6.838,13.377C5.693,14.425 3.844,14.911 1.17,14.911C-0.291,14.911 -1.408,14.814 -2.117,14.715L-2.117,-1.411Z" style="fill:white;fill-rule:nonzero;"/>
    </g>
    <g transform="matrix(4.16667,0,0,4.16667,1412.31,1436.27)">
        <path d="M0,-0.241C-2.334,-0.29 -4.988,0.123 -4.988,2.408C-4.988,3.795 -4.063,4.453 -2.973,4.453C-1.434,4.453 -0.457,3.482 -0.121,2.483C-0.053,2.265 0,2.02 0,1.801L0,-0.241ZM2.064,2.943C2.064,3.966 2.115,4.965 2.26,5.768L0.318,5.768L0.145,4.281L0.072,4.281C-0.582,5.205 -1.852,6.034 -3.527,6.034C-5.91,6.034 -7.129,4.356 -7.129,2.655C-7.129,-0.193 -4.602,-1.751 -0.053,-1.725L-0.053,-1.969C-0.053,-2.942 -0.318,-4.694 -2.727,-4.694C-3.82,-4.694 -4.965,-4.351 -5.789,-3.818L-6.279,-5.23C-5.307,-5.861 -3.893,-6.275 -2.41,-6.275C1.188,-6.275 2.064,-3.818 2.064,-1.459L2.064,2.943Z" style="fill:white;fill-rule:nonzero;"/>
    </g>
    <g transform="matrix(4.16667,0,0,4.16667,0,486.425)">
        <rect x="345.154" y="216.457" width="2.139" height="17.273" style="fill:white;"/>
    </g>
    <g transform="matrix(4.16667,0,0,4.16667,1490.75,1436.27)">
        <path d="M0,-0.241C-2.336,-0.29 -4.984,0.123 -4.984,2.408C-4.984,3.795 -4.066,4.453 -2.975,4.453C-1.438,4.453 -0.465,3.482 -0.125,2.483C-0.053,2.265 0,2.02 0,1.801L0,-0.241ZM2.066,2.943C2.066,3.966 2.115,4.965 2.26,5.768L0.314,5.768L0.145,4.281L0.07,4.281C-0.588,5.205 -1.852,6.034 -3.533,6.034C-5.912,6.034 -7.129,4.356 -7.129,2.655C-7.129,-0.193 -4.6,-1.751 -0.053,-1.725L-0.053,-1.969C-0.053,-2.942 -0.318,-4.694 -2.73,-4.694C-3.82,-4.694 -4.967,-4.351 -5.791,-3.818L-6.279,-5.23C-5.309,-5.861 -3.896,-6.275 -2.412,-6.275C1.188,-6.275 2.066,-3.818 2.066,-1.459L2.066,2.943Z" style="fill:white;fill-rule:nonzero;"/>
    </g>
    <g transform="matrix(4.16667,0,0,4.16667,1516.56,1445.91)">
        <path d="M0,-5.135C0,-6.35 -0.023,-7.347 -0.096,-8.321L1.803,-8.321L1.924,-6.375L1.971,-6.375C2.555,-7.495 3.918,-8.589 5.865,-8.589C7.492,-8.589 10.021,-7.614 10.021,-3.577L10.021,3.454L7.883,3.454L7.883,-3.332C7.883,-5.231 7.176,-6.814 5.156,-6.814C3.748,-6.814 2.654,-5.817 2.289,-4.623C2.193,-4.357 2.143,-3.99 2.143,-3.624L2.143,3.454L0,3.454L0,-5.135Z" style="fill:white;fill-rule:nonzero;"/>
    </g>
    <g transform="matrix(4.16667,0,0,4.16667,1610.61,1413.17)">
        <path d="M0,10.871C-0.559,11.165 -1.799,11.578 -3.383,11.578C-6.932,11.578 -9.246,9.144 -9.246,5.546C-9.246,1.92 -6.762,-0.707 -2.922,-0.707C-1.654,-0.707 -0.533,-0.39 0.049,-0.097L-0.441,1.556C-0.947,1.264 -1.754,0.993 -2.922,0.993C-5.619,0.993 -7.078,2.991 -7.078,5.448C-7.078,8.173 -5.326,9.852 -2.994,9.852C-1.777,9.852 -0.975,9.533 -0.365,9.267L0,10.871Z" style="fill:white;fill-rule:nonzero;"/>
    </g>
    <g transform="matrix(4.16667,0,0,4.16667,1654.38,1440.53)">
        <path d="M0,-2.286C0.023,-3.649 -0.561,-5.765 -2.969,-5.765C-5.135,-5.765 -6.082,-3.77 -6.252,-2.286L0,-2.286ZM-6.273,-0.754C-6.229,2.142 -4.377,3.333 -2.238,3.333C-0.705,3.333 0.221,3.065 1.021,2.726L1.387,4.258C0.633,4.599 -0.658,5.012 -2.529,5.012C-6.154,5.012 -8.318,2.605 -8.318,-0.946C-8.318,-4.498 -6.229,-7.298 -2.799,-7.298C1.047,-7.298 2.068,-3.916 2.068,-1.751C2.068,-1.312 2.016,-0.972 1.994,-0.754L-6.273,-0.754Z" style="fill:white;fill-rule:nonzero;"/>
    </g>
    <g transform="matrix(4.16667,0,0,4.16667,1705.83,1387.22)">
        <path d="M0,17.538L0,7.395L-1.656,7.395L-1.656,5.764L0,5.764L0,5.202C0,3.552 0.363,2.04 1.361,1.092C2.158,0.315 3.234,0 4.23,0C4.986,0 5.641,0.169 6.053,0.339L5.764,1.994C5.445,1.846 5.01,1.725 4.402,1.725C2.58,1.725 2.113,3.329 2.113,5.133L2.113,5.764L4.961,5.764L4.961,7.395L2.113,7.395L2.113,17.538L0,17.538Z" style="fill:white;fill-rule:nonzero;"/>
    </g>
    <g transform="matrix(4.16667,0,0,4.16667,1741.49,1435.66)">
        <path d="M0,0.05C0,2.628 1.486,4.575 3.578,4.575C5.621,4.575 7.156,2.655 7.156,0.001C7.156,-1.994 6.158,-4.522 3.629,-4.522C1.098,-4.522 0,-2.189 0,0.05M9.344,-0.074C9.344,4.283 6.326,6.18 3.479,6.18C0.295,6.18 -2.164,3.843 -2.164,0.12C-2.164,-3.817 0.414,-6.13 3.678,-6.13C7.057,-6.13 9.344,-3.673 9.344,-0.074" style="fill:white;fill-rule:nonzero;"/>
    </g>
    <g transform="matrix(4.16667,0,0,4.16667,1794.5,1443.88)">
        <path d="M0,-4.163C0,-5.549 -0.027,-6.741 -0.1,-7.835L1.775,-7.835L1.844,-5.524L1.941,-5.524C2.48,-7.107 3.77,-8.103 5.203,-8.103C5.447,-8.103 5.619,-8.079 5.813,-8.03L5.813,-6.011C5.596,-6.061 5.375,-6.083 5.082,-6.083C3.578,-6.083 2.508,-4.941 2.215,-3.333C2.164,-3.045 2.115,-2.702 2.115,-2.337L2.115,3.94L0,3.94L0,-4.163Z" style="fill:white;fill-rule:nonzero;"/>
    </g>
    <g transform="matrix(4.16667,0,0,4.16667,1855.1,1460.3)">
        <path d="M0,-16.397L2.119,-16.397L2.119,-1.778L9.123,-1.778L9.123,0L0,0L0,-16.397Z" style="fill:white;fill-rule:nonzero;"/>
    </g>
    <g transform="matrix(4.16667,0,0,4.16667,0,489.975)">
        <path d="M457.311,221.104L459.452,221.104L459.452,232.878L457.311,232.878L457.311,221.104ZM459.693,217.797C459.717,218.525 459.184,219.106 458.332,219.106C457.576,219.106 457.041,218.525 457.041,217.797C457.041,217.041 457.6,216.457 458.383,216.457C459.184,216.457 459.693,217.041 459.693,217.797" style="fill:white;fill-rule:nonzero;"/>
    </g>
    <g transform="matrix(4.16667,0,0,4.16667,1932.91,1387.22)">
        <path d="M0,17.538L0,7.395L-1.654,7.395L-1.654,5.764L0,5.764L0,5.202C0,3.552 0.365,2.04 1.363,1.092C2.166,0.315 3.238,0 4.232,0C4.986,0 5.643,0.169 6.055,0.339L5.766,1.994C5.453,1.846 5.01,1.725 4.402,1.725C2.58,1.725 2.115,3.329 2.115,5.133L2.115,5.764L4.963,5.764L4.963,7.395L2.115,7.395L2.115,17.538L0,17.538Z" style="fill:white;fill-rule:nonzero;"/>
    </g>
    <g transform="matrix(4.16667,0,0,4.16667,1994.24,1440.53)">
        <path d="M0,-2.286C0.021,-3.649 -0.563,-5.765 -2.975,-5.765C-5.135,-5.765 -6.086,-3.77 -6.256,-2.286L0,-2.286ZM-6.279,-0.754C-6.232,2.142 -4.383,3.333 -2.242,3.333C-0.709,3.333 0.217,3.065 1.018,2.726L1.381,4.258C0.631,4.599 -0.66,5.012 -2.535,5.012C-6.158,5.012 -8.328,2.605 -8.328,-0.946C-8.328,-4.498 -6.232,-7.298 -2.799,-7.298C1.041,-7.298 2.064,-3.916 2.064,-1.751C2.064,-1.312 2.016,-0.972 1.994,-0.754L-6.279,-0.754Z" style="fill:white;fill-rule:nonzero;"/>
    </g>
    <g transform="matrix(4.16667,0,0,4.16667,1650.11,782.895)">
        <path d="M0,56.624C-1.348,56.545 -1.072,56.561 -0.859,55.962C-0.139,54.871 2.26,55.183 2.588,53.684C0.402,49.762 -5.809,49.845 -8.816,46.744C-14.209,45.359 -19.123,43.508 -23.207,40.792C-27.584,41.041 -30.074,39.397 -34.113,39.303C-33.984,42.709 -36.303,49.561 -34.527,52.553C-33.787,53.808 -34.709,55.042 -35.305,55.238C-35.727,55.369 -36.58,55.002 -38.271,55.175C-40.439,55.392 -43.471,56.206 -43.545,55.667C-43.754,53.791 -38.213,53.854 -38.082,50.719C-37.371,44.84 -40.148,39.581 -38.082,35.342C-35.945,33.837 -31.682,34.464 -28.172,34.35C-27.139,32.957 -28.77,32.936 -29.434,29.878C-29.963,24.229 -27.801,20.825 -24.697,18.477C-25.313,15.405 -26.723,10.037 -26.25,5.087C-26.086,3.49 -25.332,2.06 -25.264,0.625C-25.129,-1.99 -26.01,-5.078 -23.57,-7.05C-23.16,-7.05 -22.754,-7.182 -22.701,-6.862C-22.377,-5.128 -20.656,-1.177 -23.207,-0.371C-22.932,4.001 -23.701,7.827 -23.207,11.041C-20.73,10.536 -18.402,9.724 -16.254,10.536C-14.121,11.361 -13.328,16.335 -14.652,17.502C-15.984,18.663 -16.756,18.951 -19.246,18.972C-17.916,25.037 -23.385,25.993 -21.232,31.366C-19.547,33.14 -17.625,33.14 -16.965,36.829C-16.365,38.412 -11.588,41.414 -8.816,43.772C-0.822,44.855 2.193,50.941 7.041,55.175C6.59,56.272 1.652,56.72 0,56.624M-19.883,-13.695C-43.086,-13.695 -61.893,5.117 -61.893,28.309C-61.893,51.513 -43.086,70.319 -19.883,70.319C3.322,70.319 22.111,51.513 22.111,28.309C22.111,5.117 3.322,-13.695 -19.883,-13.695" style="fill:white;fill-rule:nonzero;"/>
    </g>
    <g transform="matrix(4.16667,0,0,4.16667,853.678,867.322)">
        <path d="M0,16.093C-1.686,18.023 -4.115,20.256 -4.092,22.235C-4.063,24.541 -0.156,26.401 -0.521,27.59C-0.904,28.789 -4.873,26.792 -6.133,25.753C-7.125,25.371 -8.465,25.359 -9.08,24.584C-9.502,22.369 -7.369,21.393 -6.434,19.907C-4.721,17.185 -4.701,13.739 -2.619,11.114C-5.078,10.627 -8.164,10.797 -10.846,10.523C-12.484,12.338 -13.406,14.529 -14.939,16.389C-15.623,17.231 -16.48,18.088 -17.281,19.026C-17.959,19.833 -18.529,21.061 -19.326,21.654C-20.217,22.341 -21.59,22.499 -22.547,23.124C-23.535,23.774 -24.465,24.704 -25.473,25.471C-28.35,27.633 -31.447,29.943 -32.502,34.254C-32.67,35.412 -31.359,35.947 -32.223,36.895C-34.398,36.924 -33.9,35.479 -34.307,33.342C-34.674,31.507 -36.377,30.226 -36.025,28.689C-35.791,27.682 -33.592,27.88 -32.502,27.226C-29.969,25.695 -28.963,22.572 -26.947,20.78C-25.045,19.09 -22.844,18.958 -21.664,17.271C-21.086,16.42 -20.766,14.739 -20.203,13.458C-19.729,12.385 -18.73,11.281 -18.445,10.233C-18,8.622 -18.59,7.437 -18.146,5.543C-17.713,3.662 -16.148,1.659 -15.811,-0.603C-15.572,-2.156 -15.75,-3.882 -15.811,-5.583C-15.84,-6.789 -15.84,-7.388 -15.977,-9.136C-17.127,-8.408 -20.363,-7.749 -20.109,-6.469C-19.764,-4.706 -19.543,-2.763 -18.592,-1.324C-18.279,-0.849 -18.17,-0.538 -17.713,-0.082C-17.461,0.857 -17.416,0.696 -17.631,1.164C-17.609,2.157 -18.348,2.611 -19.033,2.909C-21.348,1.202 -20.605,2.417 -20.943,-0.544C-21.219,-2.984 -23.674,-6.606 -22.316,-8.354C-20.789,-11.033 -15.15,-14.008 -12.164,-15.392C-12.148,-20.416 -12.943,-21.992 -9.648,-23.451C-5.85,-25.135 -3.332,-18.698 -5.85,-15.248C-6.529,-14.573 -7.75,-14.418 -8.49,-13.785C-7.369,-11.002 -5.078,-7.996 -3.379,-5.778C-2.205,-6.914 -0.58,-10.33 -0.428,-10.975C-0.35,-13.638 -1.035,-13.601 -0.844,-14.103C-0.525,-14.928 0.066,-13.213 0.361,-13.403C1.094,-14.341 1.365,-17.061 2.051,-16.71C2.912,-16.266 3.385,-15.36 3.508,-14.37C3.689,-13.189 2.68,-11.622 1.762,-9.69C0.35,-6.723 -1.807,-2.015 -2.918,-1.774C-4.029,-1.535 -5.396,-3.066 -5.396,-3.066C-5.396,-3.066 -6.957,-4.896 -7.033,-4.652C-7.412,-3.383 -7.748,0.988 -8.064,2.956C-6.479,4.292 -3.482,4.317 -1.16,5.543C0.477,6.409 3.865,8.108 4.115,9.646C4.385,11.524 1.531,14.378 0,16.093M-13.602,-33.958C-36.799,-33.958 -55.604,-15.147 -55.604,8.043C-55.604,31.245 -36.799,50.051 -13.602,50.051C9.615,50.051 28.404,31.245 28.404,8.043C28.404,-15.147 9.615,-33.958 -13.602,-33.958" style="fill:white;fill-rule:nonzero;"/>
    </g>
    <g transform="matrix(4.16667,0,0,4.16667,1254.64,982.362)">
        <path d="M0,-39.124C-1.398,-37.772 -3.977,-36.117 -6.635,-35.931C-7.863,-35.838 -9.506,-36.356 -10.668,-36.155C-11.223,-34.547 -11.307,-32.878 -11.885,-31.131C-12.377,-29.605 -12.646,-28.158 -12.26,-25.422C-11.893,-22.884 -10.221,-19.068 -9.836,-16.292C-9.643,-15.005 -9.551,-13.109 -9.586,-11.722C-9.66,-9.832 -10.537,-8.206 -10.275,-5.558C-10.172,-4.43 -9.539,-3.329 -9.365,-1.909C-8.895,2.154 -10.107,6.128 -8.908,9.283C-8.473,10.478 -7.209,11.158 -7.088,12.48C-7.652,12.984 -8.377,13.309 -9.586,13.158C-10.611,12.505 -10.676,10.886 -11.65,10.2C-11.279,7.817 -11.709,5.37 -12.563,2.885C-12.896,1.935 -13.561,0.964 -13.699,0.147C-13.945,-1.289 -13.525,-2.776 -13.699,-4.193C-13.979,-6.401 -14.928,-8.718 -15.533,-10.812C-16.17,-12.948 -16.549,-15.194 -17.58,-16.972C-18.639,-14.04 -18.816,-10.763 -19.637,-7.151C-19.895,-6.07 -20.49,-5.205 -20.557,-4.193C-20.643,-2.851 -20.135,-1.479 -20.316,-0.083C-20.604,1.951 -21.939,4.058 -22.156,6.08C-22.291,7.397 -21.721,8.914 -21.928,9.976C-22.086,10.794 -22.59,10.909 -23.068,11.568C-23.484,12.14 -23.479,12.964 -24.211,13.158C-25.246,13.197 -26.012,12.98 -26.488,12.48C-26.594,11.115 -24.656,10.173 -24.447,8.597C-24.078,6.008 -24.986,1.675 -24.656,-2.131C-24.512,-3.911 -23.91,-5.44 -23.977,-6.704C-24.035,-7.873 -24.715,-8.853 -24.91,-10.132C-25.178,-12.172 -25.133,-14.832 -24.91,-16.745C-24.533,-19.572 -24.035,-22.048 -23.527,-24.509C-23.217,-26.024 -23.037,-28.108 -23.293,-29.536C-23.52,-30.671 -23.498,-31.451 -23.666,-32.502C-23.891,-33.95 -23.561,-35.345 -24.508,-36.383C-28.377,-35.132 -32.658,-37.143 -34.941,-38.895C-35.818,-42.539 -33.832,-46.446 -35.17,-49.769C-35.184,-49.769 -35.17,-51.27 -35.121,-51.669L-35.121,-51.691C-33.902,-52.236 -32.787,-52.887 -31.24,-51.924C-31.211,-51.322 -31.283,-50.586 -31.24,-49.978C-31.229,-49.73 -31.156,-49.585 -31.262,-49.224C-31.375,-48.872 -31.906,-48.291 -32.43,-48.032C-32.465,-45.621 -31.662,-44.062 -31.752,-41.637C-30.236,-40.498 -26.918,-41.34 -24.91,-41.407C-24.088,-41.428 -23.068,-41.064 -22.383,-41.18C-20.244,-41.518 -19.627,-42.523 -19.852,-43.983C-19.957,-44.555 -20.582,-44.838 -20.781,-46.195C-20.99,-47.493 -20.158,-50.803 -17.816,-50.988C-15.494,-51.189 -14.301,-48.776 -14.393,-46.195C-14.424,-44.979 -14.615,-44.933 -15.254,-44.086C-15.615,-43.574 -15.512,-43.076 -15.084,-42.539C-14.117,-41.02 -12.482,-41.483 -10.275,-41.407C-9.447,-41.378 -8.658,-40.76 -7.775,-40.721C-6.254,-40.64 -4.883,-41.675 -3.436,-41.407C-3.246,-44.309 -2.047,-47.509 -3.619,-48.821C-4.08,-49.993 -3.658,-50.859 -3.678,-51.603C-2.373,-52.147 -1.129,-52.419 -0.01,-51.522C0.021,-51.031 0.061,-50.243 0.105,-49.757C0.086,-49.757 0.084,-49.158 0.074,-49.161C-1.068,-46.968 0.684,-43.117 0,-39.124M-17.408,-61.567C-40.596,-61.567 -59.408,-42.757 -59.408,-19.565C-59.408,3.637 -40.596,22.443 -17.408,22.443C5.793,22.443 24.604,3.637 24.604,-19.565C24.604,-42.757 5.793,-61.567 -17.408,-61.567" style="fill:white;fill-rule:nonzero;"/>
    </g>
    <g transform="matrix(4.16667,0,0,4.16667,206.974,1316.14)">
        <path d="M0,-28.391L-14.928,-28.391L-14.928,-17.782L0,-17.782L0,-12.843L-14.928,-12.843L-14.928,4.944L-20.428,4.944L-20.428,-33.335L0,-33.335L0,-28.391Z" style="fill:white;fill-rule:nonzero;"/>
    </g>
    <g transform="matrix(-4.16667,0,0,4.16667,516.15,151.775)">
        <rect x="59.187" y="246.112" width="5.502" height="38.279" style="fill:white;"/>
    </g>
    <g transform="matrix(4.16667,0,0,4.16667,431.429,1316.14)">
        <path d="M0,-28.391L-13.248,-28.391L-13.248,4.944L-18.758,4.944L-18.758,-28.391L-31.996,-28.391L-31.996,-33.335L0,-33.335L0,-28.391Z" style="fill:white;fill-rule:nonzero;"/>
    </g>
    <g transform="matrix(4.16667,0,0,4.16667,607.349,1177.24)">
        <path d="M0,38.279L-4.727,38.279L-30.313,8.816L-30.313,38.279L-35.48,38.279L-35.48,0L-31.098,0L-5.162,29.635L-5.162,0L0,0L0,38.279Z" style="fill:white;fill-rule:nonzero;"/>
    </g>
    <g transform="matrix(4.16667,0,0,4.16667,747.957,1316.14)">
        <path d="M0,-28.391L-16.217,-28.391L-16.217,-16.835L-0.563,-16.835L-0.563,-11.889L-16.217,-11.889L-16.217,0.005L0.506,0.005L0.506,4.944L-21.711,4.944L-21.711,-33.335L0,-33.335L0,-28.391Z" style="fill:white;fill-rule:nonzero;"/>
    </g>
    <g transform="matrix(4.16667,0,0,4.16667,873.511,1301.63)">
        <path d="M0,-21.43C-3.252,-24.522 -6.396,-25.418 -8.98,-25.418C-12.514,-25.418 -15.051,-23.56 -15.051,-20.866C-15.051,-13.513 1.529,-13.634 1.529,-1.449C1.529,4.552 -3.023,8.929 -9.195,8.929C-13.359,8.929 -16.717,7.81 -19.92,5.393L-19.92,-1.564C-17.115,2.031 -13.58,3.996 -9.816,3.996C-5.551,3.996 -3.594,1.308 -3.594,-0.837C-3.594,-8.746 -20.146,-9.65 -20.146,-20.14C-20.146,-26.374 -15.537,-30.359 -8.533,-30.359C-5.615,-30.359 -2.684,-29.455 0,-27.668L0,-21.43Z" style="fill:white;fill-rule:nonzero;"/>
    </g>
    <g transform="matrix(4.16667,0,0,4.16667,1004.04,1301.63)">
        <path d="M0,-21.43C-3.254,-24.522 -6.404,-25.418 -8.986,-25.418C-12.521,-25.418 -15.041,-23.56 -15.041,-20.866C-15.041,-13.513 1.51,-13.634 1.51,-1.449C1.51,4.552 -3.021,8.929 -9.217,8.929C-13.361,8.929 -16.719,7.81 -19.93,5.393L-19.93,-1.564C-17.119,2.031 -13.59,3.996 -9.826,3.996C-5.561,3.996 -3.596,1.308 -3.596,-0.837C-3.596,-8.746 -20.156,-9.65 -20.156,-20.14C-20.156,-26.374 -15.551,-30.359 -8.533,-30.359C-5.619,-30.359 -2.703,-29.455 0,-27.668L0,-21.43Z" style="fill:white;fill-rule:nonzero;"/>
    </g>
    <g transform="matrix(4.16667,0,0,4.16667,1151.51,1271.23)">
        <path d="M0,-6.836L5.055,-6.836C7.691,-6.836 10.277,-7.964 10.277,-11.22C10.277,-14.08 8.426,-15.535 4.832,-15.535L0,-15.535L0,-6.836ZM7.584,-22.558C15.439,-22.558 20.088,-17.283 20.088,-11.558C20.088,-7.347 17.906,-4.2 13.535,-2.183C17.467,-0.214 18.645,4.5 24.029,15.722L13.535,15.722C9.424,7.528 7.922,0.178 2.746,0.178L0,0.178L0,15.722L-9.529,15.722L-9.529,-22.558L7.584,-22.558Z" style="fill:white;fill-rule:nonzero;"/>
    </g>
    <g transform="matrix(4.16667,0,0,4.16667,1386.75,1177.24)">
        <path d="M0,38.279L-28.24,38.279L-28.24,0L-0.4,0L-0.4,7.022L-18.699,7.022L-18.699,15.046L-1.25,15.046L-1.25,22.057L-18.699,22.057L-18.699,31.265L0,31.265L0,38.279Z" style="fill:white;fill-rule:nonzero;"/>
    </g>
    <g transform="matrix(4.16667,0,0,4.16667,1451.55,1270.53)">
        <path d="M0,-6.502L4.439,-6.502C8.807,-6.502 10.391,-8.079 10.391,-10.941C10.391,-14.186 8.525,-15.368 3.361,-15.368L0,-15.368L0,-6.502ZM7.516,-22.391C16.275,-22.391 20.211,-16.273 20.211,-11.053C20.211,-5.661 16.391,0.508 7.572,0.508L0,0.508L0,15.889L-9.539,15.889L-9.539,-22.391L7.516,-22.391Z" style="fill:white;fill-rule:nonzero;"/>
    </g>
    <g transform="matrix(4.16667,0,0,4.16667,1711.93,1338.84)">
        <path d="M0,-38.783L0,-17.06C0,-4.377 -8.643,0 -19.141,0C-30.256,0 -38.281,-5.16 -38.281,-16.998L-38.281,-38.783L-28.746,-38.783L-28.746,-16.776C-28.746,-11.279 -24.752,-7.968 -19.256,-7.968C-14.201,-7.968 -9.545,-10.606 -9.545,-17.454L-9.545,-38.783L0,-38.783Z" style="fill:white;fill-rule:nonzero;"/>
    </g>
    <g transform="matrix(4.16667,0,0,4.16667,1776.33,1206.46)">
        <path d="M0,24.252L5.381,24.252C10.658,24.252 12.508,22.844 12.508,19.534C12.508,16.728 10.037,15.217 6.678,15.217L0,15.217L0,24.252ZM0,8.197L4.984,8.197C8.467,8.197 9.863,6.067 9.863,4.04C9.863,2.079 8.467,0.009 4.984,0.009L0,0.009L0,8.197ZM7.006,-7.014C16.045,-7.014 19.697,-1.682 19.697,2.589C19.697,5.787 17.676,8.646 14.473,10.215C19.926,11.624 22.619,15.554 22.619,20.044C22.619,24.417 20.26,31.266 9.088,31.266L-9.553,31.266L-9.553,-7.014L7.006,-7.014Z" style="fill:white;fill-rule:nonzero;"/>
    </g>
    <g transform="matrix(4.16667,0,0,4.16667,2011.69,1177.24)">
        <path d="M0,38.279L-29.195,38.279L-29.195,0L-19.648,0L-19.648,31.265L0,31.265L0,38.279Z" style="fill:white;fill-rule:nonzero;"/>
    </g>
    <g transform="matrix(-4.16667,0,0,4.16667,4096.37,151.775)">
        <rect x="486.791" y="246.112" width="9.547" height="38.279" style="fill:white;"/>
    </g>
    <g transform="matrix(4.16667,0,0,4.16667,2241.02,1191.02)">
        <path d="M0,31.663C-5.332,34.411 -9.371,35.476 -15.045,35.476C-29.912,35.476 -37.322,25.83 -37.322,15.945C-37.322,5.73 -28.961,-3.813 -14.314,-3.813C-8.975,-3.813 -4.211,-2.686 -0.453,-0.444L-0.453,8.089C-4.662,5.73 -8.916,4.159 -13.641,4.159C-21.781,4.159 -27.502,8.99 -27.502,15.778C-27.502,22.629 -21.834,27.508 -13.859,27.508C-8.861,27.508 -5.5,25.938 0,23.302L0,31.663Z" style="fill:white;fill-rule:nonzero;"/>
    </g>
</svg>